<?xml version="1.0" encoding="iso-8859-1"?>
<!-- Generator: Adobe Illustrator 19.0.0, SVG Export Plug-In . SVG Version: 6.00 Build 0)  -->
<svg version="1.1" id="Layer_1" xmlns="http://www.w3.org/2000/svg" xmlns:xlink="http://www.w3.org/1999/xlink" x="0px" y="0px"
	 viewBox="0 0 512 512" style="enable-background:new 0 0 512 512;" xml:space="preserve">
<ellipse style="fill:#FFE666;" cx="255.999" cy="55.463" rx="65.829" ry="47.63"/>
<path style="fill:#EDD147;" d="M320.306,65.693c-6.468,21.389-32.799,37.407-64.303,37.407c-36.352,0-65.829-21.326-65.829-47.637
	c0-23.542,23.615-43.092,54.638-46.937c-18.233,6.092-30.083,15.956-30.083,27.084c0,18.516,32.768,33.531,73.195,33.531
	C299.554,69.141,310.536,67.897,320.306,65.693z"/>
<path style="fill:#946132;" d="M443.036,234.772c0,80.015-83.739,80.787-187.037,80.787s-187.037-0.772-187.037-80.787
	S100.307,68.012,255.999,68.012S443.036,154.757,443.036,234.772z"/>
<g>
	<path style="fill:#7D522A;" d="M335.984,302.433c-3.787,4.322-8.603,8.394-14.125,12.123c-0.01,0-0.01,0-0.01,0
		c-4.399,0.209-8.871,0.376-13.427,0.502c-16.635,0.481-34.22,0.502-52.423,0.502c-26.634,0-51.963-0.052-74.888-1.494
		c-15.768-15.559-25.004-40.605-25.004-79.297c0-73.456,13.97-153.819,80.645-166.285c-36.906,29.33-45.641,92.369-45.641,150.612
		c0,80.018,44.896,84.623,100.067,84.623C302.739,303.717,319.085,303.804,335.984,302.433z"/>
	<path style="fill:#7D522A;" d="M417.857,291.004c-32.371,24.21-92.735,24.555-161.855,24.555
		c-103.299,0-187.037-0.773-187.037-80.792c0-62.359,19.038-128.805,101.146-155.094c-52.746,31.953-66.142,87.124-66.142,139.421
		c0,80.018,83.908,84.623,187.207,84.623C340.132,303.717,384.525,299.719,417.857,291.004z"/>
	<path style="fill:#7D522A;" d="M416.621,291.903c-21.567,15.402-54.93,20.773-94.762,22.653c-0.01,0-0.01,0-0.01,0
		c-4.399,0.209-8.871,0.376-13.427,0.502c13.051-3.072,24.116-8.683,32.266-19.007c0.01-0.01,0.01-0.01,0.021-0.021
		c0.01-0.01,0.021-0.021,0.021-0.042c9.603-12.184,15.151-30.898,15.151-59.622c0-73.937-13.751-153.516-78.242-167.758
		c14.514,0.815,27.815,2.476,39.988,4.869C412.139,117.791,352.611,275.989,416.621,291.903z"/>
</g>
<path style="fill:#F0DFC0;" d="M400.198,301.628l-19.163,198.757c-0.207,2.143-2.007,3.778-4.161,3.778H135.14
	c-2.152,0-3.954-1.635-4.161-3.778l-19.173-198.757H400.198z"/>
<g>
	<path style="fill:#E6CFA8;" d="M151.377,504.163h-16.235c-2.152,0-3.954-1.635-4.161-3.778l-19.175-198.757h20.041L151.377,504.163
		z"/>
	<polygon style="fill:#E6CFA8;" points="192.607,504.163 172.576,504.163 153.036,301.628 173.077,301.628 	"/>
	<polygon style="fill:#E6CFA8;" points="236.752,504.163 216.722,504.163 204.773,301.628 224.814,301.628 	"/>
	<polygon style="fill:#E6CFA8;" points="276.03,504.163 255.999,504.163 255.999,301.628 276.041,301.628 	"/>
	<polygon style="fill:#E6CFA8;" points="315.315,504.163 295.284,504.163 307.07,301.628 327.111,301.628 	"/>
	<polygon style="fill:#E6CFA8;" points="359.214,504.163 339.184,504.163 356.18,301.628 376.221,301.628 	"/>
</g>
<path d="M393.503,371.076c4.309,0.414,8.138-2.741,8.552-7.049l5.58-57.863c29.075-13.773,43.239-37.192,43.239-71.397
	c0-45.059-9.514-80.484-29.086-108.299c-2.491-3.54-7.38-4.391-10.919-1.9c-3.54,2.491-4.391,7.379-1.9,10.919
	c17.651,25.085,26.231,57.559,26.231,99.28c0,29.755-11.841,48.014-38.321,59.022h-46.889c9.219-14,13.738-33.505,13.738-59.022
	c0-50.005-6.373-88.163-19.481-116.657c-6.964-15.137-15.799-27.323-26.435-36.552c28.714,5.897,52.224,16.345,70.233,31.281
	c3.331,2.763,8.271,2.303,11.035-1.029c2.763-3.331,2.302-8.272-1.029-11.035c-18.507-15.35-41.992-26.382-70.193-33.039
	c1.187-3.996,1.807-8.096,1.807-12.275c0-15.303-7.998-29.516-22.522-40.025C293.385,5.483,275.221,0,255.999,0
	c-19.218,0-37.379,5.483-51.139,15.438c-14.526,10.51-22.526,24.724-22.526,40.025c0,4.156,0.612,8.234,1.786,12.208
	C102.433,86.855,61.126,142.822,61.126,234.768c0,34.207,14.166,57.627,43.246,71.4l19.172,198.748
	c0.388,4.018,3.764,7.084,7.8,7.084H380.67c4.036,0,7.414-3.067,7.8-7.084l10.085-104.6c0.415-4.308-2.741-8.138-7.049-8.552
	c-4.304-0.412-8.137,2.741-8.552,7.049l-9.402,97.514h-25.859l15.411-186.862h28.465l-5.116,53.06
	C386.039,366.831,389.195,370.661,393.503,371.076z M330.009,124.663c11.975,26.027,18.046,63.072,18.046,110.106
	c0,29.341-5.968,48.194-18.73,59.022H182.674c-12.761-10.829-18.73-29.682-18.73-59.023c0-47.033,6.072-84.078,18.046-110.106
	c15.112-32.845,39.321-48.812,74.009-48.812S314.896,91.816,330.009,124.663z M198.326,309.464l10.123,186.862h-28.411
	l-15.411-186.862H198.326z M214.023,309.464h34.144v186.862h-24.021L214.023,309.464z M263.839,309.464h34.143L287.86,496.327
	h-24.021V309.464z M198.008,55.463c0-21.94,26.015-39.79,57.992-39.79s57.992,17.85,57.992,39.79c0,3.105-0.535,6.167-1.58,9.151
	c-17.261-2.949-36.073-4.439-56.412-4.439c-20.402,0-39.212,1.466-56.432,4.383C198.534,61.593,198.008,58.55,198.008,55.463z
	 M76.799,234.768c0-86.759,38.587-137.343,117.544-153.344c-10.707,9.244-19.593,21.476-26.592,36.688
	c-13.108,28.492-19.481,66.651-19.481,116.656c0,25.517,4.519,45.023,13.738,59.022H115.12
	C88.64,282.782,76.799,264.522,76.799,234.768z M120.436,309.464h28.464l15.411,186.862h-25.85L120.436,309.464z M331.967,496.327
	h-28.411l10.122-186.862h33.7L331.967,496.327z"/>
<circle cx="128.919" cy="145.241" r="7.837"/>
<circle cx="216.722" cy="138.627" r="7.837"/>
<circle cx="236.752" cy="187.601" r="7.837"/>
<circle cx="266.02" cy="156.212" r="7.837"/>
<circle cx="398.168" cy="145.241" r="7.837"/>
<circle cx="394.971" cy="181.938" r="7.837"/>
<circle cx="308.61" cy="146.463" r="7.837"/>
<circle cx="288.747" cy="197.611" r="7.837"/>
<circle cx="128.919" cy="183.944" r="7.837"/>
<g>
</g>
<g>
</g>
<g>
</g>
<g>
</g>
<g>
</g>
<g>
</g>
<g>
</g>
<g>
</g>
<g>
</g>
<g>
</g>
<g>
</g>
<g>
</g>
<g>
</g>
<g>
</g>
<g>
</g>
</svg>
