<?xml version="1.0" encoding="utf-8"?>
<!-- Generator: Adobe Illustrator 19.2.1, SVG Export Plug-In . SVG Version: 6.00 Build 0)  -->
<svg version="1.1" id="layer" xmlns="http://www.w3.org/2000/svg" xmlns:xlink="http://www.w3.org/1999/xlink" x="0px" y="0px"
	 viewBox="0 0 652 652" style="enable-background:new 0 0 652 652;" xml:space="preserve">
<style type="text/css">
	.st0{fill:#FFD800;}
	.st1{fill:none;stroke:#231815;stroke-width:5.5948;}
	.st2{fill:none;stroke:#FFFFFF;stroke-width:33.5688;}
	.st3{fill:none;stroke:#FFFFFF;stroke-width:19.5818;stroke-linecap:square;stroke-miterlimit:2;}
	.st4{fill:#FFFFFF;}
	.st5{fill:#231815;}
	.st6{fill:none;stroke:#231815;stroke-width:4.1961;}
	.st7{fill:#008C50;}
	.st8{fill:none;stroke:#231815;stroke-width:2.7974;stroke-linecap:square;stroke-miterlimit:2;}
</style>
<g>
	<path class="st0" d="M376.1,572c191.6,4.2,347.1-111.9,347.1-249.9c0-138-155.4-249.9-347.1-249.9C184.4,72.1,28,165,22,322
		C16.7,460,185.5,567.8,376.1,572z"/>
	<path class="st1" d="M376.1,572c191.6,4.2,347.1-111.9,347.1-249.9c0-138-155.4-249.9-347.1-249.9C184.4,72.1,28,165,22,322
		C16.7,460,185.5,567.8,376.1,572z"/>
	<path class="st0" d="M376.1,572c191.6,4.2,347.1-111.9,347.1-249.9c0-138-155.4-249.9-347.1-249.9C184.4,72.1,28,165,22,322
		C16.7,460,185.5,567.8,376.1,572z"/>
	<path class="st1" d="M376.1,572c191.6,4.2,347.1-111.9,347.1-249.9c0-138-155.4-249.9-347.1-249.9C184.4,72.1,28,165,22,322
		C16.7,460,185.5,567.8,376.1,572z"/>
	<path class="st2" d="M376.1,572c191.6,4.2,347.1-111.9,347.1-249.9c0-138-155.4-249.9-347.1-249.9C184.4,72.1,28,165,22,322
		C16.7,460,185.5,567.8,376.1,572z"/>
	<path class="st3" d="M201.8,513.4c-35.6,18.2-85.9,21.2-120.2-2.3c-5.3-3.3-12.5-6.6-18-5.4c2.2,17.9,11.4,35.2,6.7,53.6
		c-9.9-0.9-15.9-10.6-23.7-16.2c-12.7-9.2-11.3-23.5-15.2-35.7C-8.4,481.2-34.3,446.1-46,401.7c-2,0.4-4.5-0.6-5.9-0.1l-1.7-0.3
		c-6.7,1.2-14.9-2.5-21-7c-10.8-18.6-8.4-42-1.8-61.2c5-18.2,19-33.6,34.1-45.7c-12.3-8.8,0.7-21.2-9.3-30.9
		c0.4-2.6,9.9-14.1,2.4-21.2c-0.9-4.6,5.6-3.2,7.9-5.7c2.4-4.9,9-7.9,6.8-15c6.9-1.5,11.2-1.6,15.3-7.2l0.2-1.3l-1-5.3l1.5,0.1
		c-0.6,1.5,3.6,0.1,4.3,1c11-3.3,10.8-15.2,24.2-12l11.6-6.1c1,2.8,4,1.2,6.1,1.8l3.2-2.9c4.6,4.5,14,4.7,21,7.1
		c11.8-3,27.5-11.7,39.1-15.5C120.2,165.7,196.9,487.9,201.8,513.4z"/>
	<path class="st0" d="M376.1,572c191.6,4.2,347.1-111.9,347.1-249.9c0-138-155.4-249.9-347.1-249.9C184.4,72.1,28,165,22,322
		C16.7,460,185.5,567.8,376.1,572z"/>
	<path class="st1" d="M376.1,572c191.6,4.2,347.1-111.9,347.1-249.9c0-138-155.4-249.9-347.1-249.9C184.4,72.1,28,165,22,322
		C16.7,460,185.5,567.8,376.1,572z"/>
	<path class="st4" d="M376.1,572c191.6,4.2,347.1-111.9,347.1-249.9c0-138-155.4-249.9-347.1-249.9C184.4,72.1,28,165,22,322
		C16.7,460,185.5,567.8,376.1,572z"/>
	<path class="st1" d="M376.1,572c191.6,4.2,347.1-111.9,347.1-249.9c0-138-155.4-249.9-347.1-249.9C184.4,72.1,28,165,22,322
		C16.7,460,185.5,567.8,376.1,572z"/>
	<path class="st5" d="M587.3,484.9c1.7,0,2.5-0.7,2.5-2.1c0-1.4-0.8-2.1-2.3-2.1h-4.1v4.3H587.3z M580,477.8h7.9
		c3.5,0,5.2,1.5,5.2,4.6c0,2-0.9,3.3-2.4,3.8c1.5,0.5,1.9,1.6,2,3.5l0.1,1.9c0,0.9,0,1.5,0.6,1.8v0.5h-3.6c-0.2-0.5-0.4-1.2-0.4-2
		l0-1.7c-0.1-1.9-0.6-2.6-2.4-2.6h-3.5v6.3H580V477.8z"/>
	<path class="st5" d="M458.1,193.4c0.2,9.4,17.4,20.9,28.2,18.4c8.2-1.9,10.7-9,10.2-15.5c-0.5-7.3-12.6-13.3-18.8-17.5
		c-9-6-17.7-16.6-14.9-27.8c4-16.3,11.4-21.2,25.5-24.2c3.4-0.8,8.9,0.1,12.7,0.5c2.3,0.2,5.6,2,10.3,4.2c2.9,1.3,9.6,6.6,9.6,6.6
		l-7.8,13.6c-3.7-7.9-8-15.3-15.6-17.5c-4.6-1.3-20.1,2.1-14.9,16.2l21.6,17.8c6.2,4.9,12,9.9,12,18.1c0,8.5-4.9,29.2-28.6,32.4
		c-6.2,0.8-11.8,0.2-19.4-2.1c-1.8-0.5-17.9-9.9-20.1-11.7L458.1,193.4z"/>
	<path class="st5" d="M387.9,343.2l13.3-59.3c1.8-10.4,2.9-15.7,0.7-16.6c-2.1-0.9-8.1,6.2-8.1,6.2c0,0,4.6-17.7,17.3-19.8
		c0,0,9.6-2.5,15.1,3c5.1,5.1,3.8,13.9,3.8,13.9c4.3-9.2,25.2-14.2,25.2-14.2l-9.7,18.9c0,0-1.5-2.4-4.3-2.7
		c-4.9-0.5-7.2,2.6-8.1,3.4c-3,2.6-6,3.8-10.9,18.2c-5.8,18.5-10.9,49.1-10.9,49.1H387.9z"/>
	<path class="st5" d="M367.1,397.3c11.5,7.1,16.3,9.3,15.6,28.4c-0.4,11-12.1,39.2-39.9,44.1c-8.2,1.5-27.6-0.8-37.8-3.8
		c-2.5-0.7-8.7-3.7-15.5,0.3l5.2-34.6c0.1,6.5,7.3,20,17.6,26.2c9.5,5.8,20.2,6.9,29.4,0c12.2-9,13.9-17.2,13.3-25.9
		c-0.7-9.7-14.2-14-23.6-16.9c-18.4-5.6-23.9-17.9-20.2-32.8c5.4-21.8,19-33.8,32.6-34.7c4.7-0.3,11.8-0.6,16.9,0.6
		c3,0.7,9.6,1.3,15.9,4.1c3.8,1.7,12.1,3.5,12.1,3.5l-3.3,16.7c-5-10.5-17.6-17.7-28.1-18c-11-0.4-22.7,9-21.6,26.8
		c0.4,5.6,7.2,10.7,9.3,10.9C356.4,393.3,367.1,397.3,367.1,397.3z"/>
	<path class="st5" d="M380.8,466.7l20-100.2c1-3.6-4.5-12.4-4.5-12.4c0.7,0,30,0.1,30.2,0.2l-6.1,31.9l0,0.3
		c7.3-3.8,15.7-9.6,23.7-6.4c6.9,2.7,9.1,10,7,21.7c-1.3,7-6.1,30.8-6.1,33.6c0,1.5-4.6,19.1-3.1,19.1c1.9,0,4,4.2,11.3-1.6
		c0,0-4,16.4-16.8,16.4c-7.3,0-14.5-3.8-14.5-11.9c0-6.6,8.2-48.9,8.5-51.4c1.1-7.3-0.1-11.1-3-11.8c-4.3-1-7,0.6-8.5,6.1
		c-5,17.7-14.6,66.6-14.8,66.5H380.8z"/>
	<path class="st5" d="M597.1,447.2c0.2,9.4,17.4,21,28.2,18.4c8.2-1.9,10.7-9,10.2-15.5c-0.5-7.3-12.6-13.3-18.8-17.5
		c-9-6-17.7-16.6-14.9-27.8c4-16.4,11.4-21.2,25.5-24.2c3.4-0.8,8.8,0.1,12.7,0.5c2.3,0.2,5.6,2,10.3,4.2c2.9,1.3,9.6,6.6,9.6,6.6
		l-7.8,13.6c-3.7-7.9-8-15.3-15.6-17.5c-4.6-1.3-20.1,2.1-14.9,16.2l21.6,17.8c6.2,4.9,12,9.9,12,18.1c0,8.5-4.9,29.2-28.6,32.4
		c-6.2,0.8-11.8,0.2-19.4-2.1c-1.8-0.5-17.9-9.9-20.1-11.7L597.1,447.2z"/>
	<path class="st5" d="M521.1,195.8c0.2,9.4,17.4,21,28.2,18.4c8.2-1.9,10.7-9,10.2-15.5c-0.5-7.3-12.6-13.3-18.8-17.4
		c-9-6.1-17.7-16.7-14.9-27.8c4-16.3,11.4-21.2,25.5-24.2c3.4-0.8,8.9,0.1,12.7,0.5c2.3,0.2,5.6,2,10.3,4.2c2.9,1.3,9.6,6.6,9.6,6.6
		l-7.8,13.6c-3.7-7.9-8-15.3-15.6-17.5c-4.6-1.3-20.1,2.1-14.9,16.2l21.6,17.8c6.2,4.9,12,9.9,12,18.1c0,8.5-4.9,29.2-28.6,32.4
		c-6.2,0.8-11.8,0.2-19.4-2.1c-1.8-0.5-17.9-9.9-20.1-11.7L521.1,195.8z"/>
	<path class="st5" d="M323.8,149c9.8-0.8,11.9,2.1,19-3.8c1.5-1.2,10.8-13.1,10.8-28.6c0-13.8-6.3-17.6-19.8-16.2
		c-0.9,0.1-1.1,4.2-2.3,8.2L323.8,149z M312.7,200.9c-4,13.6-2.8,10.2-2.4,10.3c0.1,0,5.5,0.2,8.6,0.2c15.9,0,20.9-13.1,23.1-36.6
		c1.5-16.5-4.4-17.6-20.2-17.4L312.7,200.9z M273.4,218.7c0,0,7.8-5.3,10.2-14.3l22-99.7c0-8.8-5.7-13.4-5.7-13.4h36.5
		c19.3,0,43.9-0.3,43.9,25.3c0,19-18.5,34.9-25.2,33.9c12.7,2,17.4,12.2,17.4,28.1c0,35.8-16.9,34-36.8,38.1
		c-6.5,1.3-13.4,2.1-20.2,2.1H273.4z"/>
	<path class="st5" d="M416,197.1c3-15.6,9.9-51.3,9.9-50.3c0-0.4,1.5-6.7,1.4-6.9c-0.5-0.9-1.4-3.5-3.3-3.5
		c-14.5,0-27.6,46.5-27.6,58.1c0,5.2,2.3,11.5,8.2,11.3C411.5,205.6,415.1,201.3,416,197.1z M430.2,131l23.2-0.1l-12.6,62.8
		c-0.8,3.4-3.2,10.2-0.7,12c2.5,1.8,5.3-2,6.5-2.3c0,0-1.4,13.8-15.9,15.2c-5.1,0.5-15.6-10.2-14-12.2
		c-8.7,10.6-16.1,12.5-21.9,12.9c-15.5,0.9-20.7-17-20.7-26.2c0-23.2,15.2-66.9,40.9-64.4c1.8,0.2,9.2-0.9,13.6,5.1L430.2,131z"/>
	<path class="st5" d="M340.1,282.6c9.9,0.7,19.5-2.8,26.9-11c5.5-6,7.4-13.9,7.4-22.7c0-12.4-6.8-16.7-11-16.7
		c-3.9,0-13.1-0.4-13.1,0.2c-0.3-0.1-1.5,7.6-2.1,9.6L340.1,282.6z M290.8,342.8c0,0,8.7-2.7,12.8-12.4l19.9-91.9
		c0.9-10.1-8-13.1-8-13.1H374c18.4,0,25.6,13.3,25.6,24.7c0,26.6-35.2,41-60.6,39.4l-6.6,39.7c-1.6,10.8,10.1,13.7,10.1,13.7H290.8z
		"/>
	<path class="st5" d="M566.4,394.4c-6.4,0-9.1,9.5-12.3,19.6l-7,37.1c-0.8,3.1,1.9,8.1,5.1,9.2c17,6.3,24.6-38.6,26.1-48.6
		c0.7-4.6-0.5-13.7-2.7-16C572.8,392.7,568.3,394.4,566.4,394.4z M528.4,398.9c0,0,12.1-36.8,30.8-13.2c0,0,1.7-0.5,6.8-3
		c5.6-2.8,32.4-5.3,32,21.8c0,0,2.2,32-16.7,53.9c-5.5,6.3-16.1,10.1-24.7,10.1c-5.2,0-8.1-1.2-12.5-3.7l-4.1,25.5
		c0,6.3,8.7,10.3,8.7,10.3h-41.5c0,0,9.9-7,11.8-14.4l19-91c0.3-2.7-3.3-4.4-8.1,4.1L528.4,398.9z"/>
	<path class="st5" d="M469.5,333.9c15.1-1.5,21.2-45.8,21.2-57.9c0-9.6-3-13.8-7.6-13.8c-10.3,0-14.5,14.2-17.2,22.5
		c-3.5,11-8,31.4-6.2,40.5C460.4,329.3,464.9,334.3,469.5,333.9z M450.1,273.5c9.5-14.9,18.8-21.1,32.6-21.1c9,0,20,4.8,23.9,14.3
		c2.8,6.7,3.2,13.3,3.2,20.8c0,13.3-3.4,25.4-10.8,38c-7.4,12.4-20.2,18.1-34.9,18.1c-6.9,0-15.7-2.8-19.9-8.7
		c-4.6-6.6-5.6-12.2-5.5-21.3C438.8,297.9,443.5,283.9,450.1,273.5z"/>
	<path class="st5" d="M484.5,459.6c15.1-1.5,21.2-45.8,21.2-57.9c0-9.6-3-13.8-7.6-13.8c-10.3,0-14.5,14.2-17.2,22.5
		c-3.5,11-8,31.4-6.2,40.5C475.4,455.1,479.9,460.1,484.5,459.6z M465,399.3c9.5-14.9,18.8-21.1,32.6-21.1c9,0,20,4.8,23.9,14.3
		c2.8,6.7,3.2,13.3,3.2,20.8c0,13.3-3.4,25.4-10.8,38c-7.4,12.4-20.2,18.1-34.9,18.1c-6.9,0-15.7-2.8-19.9-8.7
		c-4.6-6.6-5.6-12.2-5.5-21.3C453.8,423.6,458.4,409.7,465,399.3z"/>
	<ellipse class="st6" cx="586.5" cy="486" rx="14" ry="14.1"/>
	<path class="st5" d="M311.3,277.4C294,279,289,299.9,277.9,311c-14.8,11.4-30,21.5-46.9,26.9c-9.8,21.7-36.8,34-54,49.4
		c24.5,15.3,11,52.7,8.8,76.7l-24.5,2c14.4,16.8,35.6,22,40.5,47.5c-35.6,18.2-85.9,21.2-120.2-2.3c-5.3-3.3-12.5-6.6-18-5.4
		c2.2,17.9,11.4,35.2,6.7,53.6c-9.9-0.9-15.9-10.6-23.7-16.2c-12.7-9.2-11.3-23.5-15.2-35.7C-8.4,481.2-34.3,446.1-46,401.7
		c-2,0.4-4.5-0.6-5.9-0.1l-1.7-0.3c-6.7,1.2-14.9-2.5-21-7c-10.8-18.6-8.4-42-1.8-61.2c5-18.2,19-33.6,34.1-45.7
		c-12.3-8.8,0.7-21.2-9.3-30.9c0.4-2.6,9.9-14.1,2.4-21.2c-0.9-4.6,5.6-3.2,7.9-5.7c2.4-4.9,9-7.9,6.8-15c6.9-1.5,11.2-1.6,15.3-7.2
		l0.2-1.3l-1-5.3l1.5,0.1c-0.6,1.5,3.6,0.1,4.3,1c11-3.3,10.8-15.2,24.2-12l11.6-6.1c1,2.8,4,1.2,6.1,1.8l3.2-2.9
		c4.6,4.5,14,4.7,21,7.1c11.8-3,22.4-10,34-13.8c29.2-8.4,58.9-16,90.6-17.3l0.3,0.3c26.3-6.2,52.1,7.9,73.5,6.4
		c14.2,15.2,2,38.2,4,59.4c1.2,12.8,6.5,25.5,15.2,34.1c12.9-2.4,24.5-0.5,36.3-9.5c12.9-3.6,16.9-3.8,20.2,6
		C324.6,268.6,318.5,272.4,311.3,277.4z"/>
	<path class="st4" d="M302.4,274.1c-1.7-0.1-3.7-0.5-4.6,1.3c-10-8-14.4,9.7-23.4,9.6c-7.6,2.2-14.5,6.8-23.1,6.6
		c-20,12.1-40.6,22.4-63.5,26.2c1.3,0.6,2.1-0.6,3-1.3c-4.6-1.1-12.8-1.2-18.3,0.7l4.3,6.2l-1.5,1.5c3.8,2.3,9-2.1,13.8-2.5
		c7.3-2.5,16.3-0.3,24.4-0.4c22-18.6,52.6-13.7,73.1-36.5c-7.6,11.8-16.7,25.5-28.8,32.3l1.2-0.9l1.4,1.5l-1.2,1.1l-1.4-1.7
		c-10.3,5.2-19.9,12.6-31.1,15.4c2.9-10,14.7-6.1,18.8-12.9c-2-2.9-6-1.3-9-1.9l-1.5,1.4c-4.4-2.8-9.4,3.7-14,5.4
		c-11.5,1.8-20.3,1.2-30.5,1.7c-8.4,11.2-20.4,20.2-34.4,19.8c8.9-1.6,17.5-11.6,28-12.5c0-1.7,0.5-3.7-1.3-4.6
		c-3.1,0.4-6.4,5.3-9.3,1.1c-4.6,0.2-8.4-0.3-13.6-2.1c-5.9-3.5-5.4-12-11.6-12.7c-4.7,11.5-22.3,1.8-32.2,6.2
		c-18.9-12.8-29.2-33.9-32.6-54.9l1.4,1.7c5.3-6.1,4.1-17.1,2.6-24.3c1.5,0.6,2.2-0.6,3.1-1.3c0.1-1.7,0.5-3.7-1.3-4.6l3.2-2.9
		c-0.8-0.9-2-1.7-1.5-3.2l1.7-1.4c0.8,1.9,2.8,1.6,4.5,1.7c0.3-3.8,1.6-8.4,2.1-13.6c-0.1,8.5-2.6,20.6,6.6,23.1
		c-9.9,17.6-4.1,40.4-2.7,59.4c7.7,6.9,5.6,24.6,20.5,17.7l3.2-4.4c0.7-3.1-1.4,3.9,1.4,4.6c2-0.4,4.9,1.4,6.1-1.2
		c-3.6-17-25.2-27.3-25.3-45.4c-7.3,13.9,4,24.6,6,36.9c-9.3-15.1-11.2-39.1-6.7-56.7l0.1-1.6l1.6,0.1c-5.6,20.2,12.6,35.7,22,51.3
		c6.2,3,14.4,5.2,21.2,2.4c0.6-1.3-0.5-2.1-1.3-3c-0.6-6.2-8.9-1.1-12-5.1c-7.7,1.4-11.2-8.6-16.1-14.4l-2.7-6.3
		c5.8-2.8,12.3,4.4,14.7,9.8c-0.2,2.7,2.9,4.2,4.3,6.4c1.7,0,3.7,0.5,4.6-1.4c-7.4-24.5-47-22.2-31.1-54.7l0.1-3.1
		c1.7,0.1,3.7,0.5,4.7-1.3c-4.7-3.4-1-9.9-4.1-13.9l-4.9,7.3c-0.4-2,1.6-4.9-1.2-6.1c7.7-0.9,1.5-5.7,3.6-10.6
		c1.3,0.6,2.1-0.5,3-1.3c-3.1-2.7,0.7-8-2.5-10.7c-0.9,0.8-2,1.5-1.7,2.9l-3-0.1c4.3-0.1,4.3-4.9,6.4-7.2c3.8,7.7-4.5,28.2,9.5,27.8
		c0.9-5.8-6.7-12.3,0.8-16.7c3.3,0-0.9,6.9,4.3,6.2c0.4-8.5,5.5-9.3,11.3-14.7c2.2-0.3,4.3,3.8,6.2,0.3l0.2-4.6
		c9.7,10.3,3.2-8.4,9.6-10.3c11.5-13.6,21,10.1,33.6-1.5c-8.9,6.6,12.7,13.4,0.5,21.4c-5,5.3-8.9,9.7-15.8,11.4
		c9.8-4.5,15.2-13.9,13.3-25.3l-2.9-3.1c-0.8,0.8-2,1.5-1.6,2.9c-3-1.1-5-4.5-9-3.4l-3.2,2.8c4.6,1.3,8.7,3.9,11.8,8.2
		c2.1,6.1-5.4,7.9-8.2,11.9c-4.6,0.7-7.8-1.3-10.4-5c-6.8-6.7,15.4-18.9-0.9-16.8l-4.3-4.8c-3.5,6-7.2,13.9-3.9,21.2l1.5,0.1
		c-1.9,0.9-1.6,2.8-1.7,4.5c-5.6-1.5-0.6-17.2-7.3-8c-4.3,8.1,7.8,10.2,6.9,17.1c5.1,2.2,14.2,2,10.1,11.2c-1.4-2.4-2.6-6-5.8-6.4
		c-0.9,0.8-2,1.5-1.7,3c-1.4-1-2.2-3.8-4.4-3.3c-3.6,3.4,1.8,7.2,2.6,10.9c2.1-0.4,5,1.5,6.1-1.3c-2.8-4.2,1.5,4.4,4.6,1.8l-0.1,1.5
		c-0.9-1.9-2.9-1.6-4.6-1.7c-4.7,2.3,2.2,4.2-0.3,7.6l2.9,3.1c-4.2,2.9,0.7,6.2,1.2,9.2l-1.1-1l1.5-1.5l1.1,1.2l-1.5,1.4l2.8,3.2
		c5.6-11.6,2.5-31.1,17.1-40.5l9.5-8.7c-6.2,17.2-17,32.2-16,52.7l3.5,24.5c-6.8,0.3-14,3.3-17.2,10c-0.1,8.5-2.5,18,6.6,23.1
		c3.5-7.5-6.2-20.8,4.1-25.7c5.1,2.1,14,4.2,18.4-0.7c-5.9-6.1-7.4-13.8-8.1-21.7c3.7-8.4,12.7-9.1,18.9-14.5
		c-6.6-11.5-3.9-26.6-5.9-39.9c6.1-1.1,1.2-10.1,5.2-13.5c-0.8-0.9-1.5-2-3-1.6l-3.1,2.8c1.5-5.4,8-10.4,3.7-16.6
		c-1.4-4.7-6.6-1.6-8.9-5l1.7-1.4l-21.2-2.4c4.9-1.5,9.4-3.6,15.3-2.4c2.6,5.5,8.6,0,13.6,2.1c-7.4,2.3-0.4,10.7,4,12.4
		c1.5-0.4,2.2,0.8,3,1.6c2.2-5.5,8.1-12.1,14.3-13.1c-6.4,13.2-23.5,20.3-20,38.7c6.5,14.2-3.3,34.3,5.5,47.5
		c-7.7,10.3,1.9,35.3-18.2,32.7c-2.9,6.9,3.6,10.4,5.3,15.5c26.4-5.1,32.3-13.5,57.4-21.9c7.2-1.7,12.3-9.8,20.2-9.7l-1.5,1.4
		l2.8,3.2c11.9-10.5,29.1-13.8,42.2-24C320.5,268.6,307.7,270.2,302.4,274.1z"/>
	<polygon class="st5" points="293.9,259.9 304.7,254.3 295.4,259.9 	"/>
	<polygon class="st5" points="271.9,274.2 276.5,272.9 276.5,274.4 	"/>
	<path class="st4" d="M230.8,272.3l1.7-1.4l-1.5-1.7c4.4-1.5,15.3-2.9,19.7,2.5c8.2-3.5,14.9-10.9,24.7-9.6
		C263.1,272.4,247.9,274.7,230.8,272.3z"/>
	<path class="st4" d="M255.8,259.8c1.4-10.2-6.2-20.6-9.3-30.9l2.2-48.8c1.5,0.6,2.2-0.5,3.1-1.3l-1.4-1.5l2.8,4.7
		c1.5,25.4-9.4,55.1,7.4,75L255.8,259.8z"/>
	<path class="st5" d="M199,302.9c-3.8,0.1-2.9-4.2-4.3-6.2l23.1-6.6c-3.2-3.1-8.3-1.1-12.1-0.5c5.1,2.2,3.8-4,6.3-5.8
		c-0.7,2.2,1.8,3.2,2.9,4.7c1.3,0.6,2.1-0.6,3-1.3c-3.8-16.1-2.9-37.6,2.4-53.3c-1.8-21.3,5.5-42.3,14.9-60.3
		c4.6-0.3,9.4-5.1,13.7-0.9c-26,11.4-21.9,42.6-28.8,65.7c-1.4,15.1,13.3,28.1,2.6,42.8l1.5,1.6c1.2-2.7,4.1-0.8,6.1-1.2
		c7.9,1.8,16.8-3.9,26-3.4C239,291,217.4,292.3,199,302.9z"/>
	<path class="st4" d="M245.2,257.7l-2.8-3.1c-0.9,0.8-2.2,1.5-1.7,2.9c-4.3-2.8-12.4-0.8-13.3-8.1c2.7-8.5-3.9-15.5,1-22.9
		c3.7,8.8,2.7,19.4,11,26.4c2.4-6.1-2.7-13.2-3.7-19.9c0.5-10.2,0.5-24.4,4.6-34.8l3,0.1c-0.5,17.1-3.3,35.2,5.4,49
		C247.9,250.9,250.2,256,245.2,257.7z"/>
	<path class="st4" d="M231.2,263.2l0.1-3.1l12.1,2C239.4,262.6,234.4,260.5,231.2,263.2z"/>
	<path class="st4" d="M167.9,386.9l-6.2-0.3c-2.9,17-4.6,34.6-11.4,49.9c4.5-15.1,6.8-33.1,6.7-48.5c-12,3.2-7.4,19.7-13.5,28.3
		c-0.3-9.5,8.4-16.9,5.7-25.7c-18,6.1-37.8,18-48.7,33c0.5,2.5-1.5,5.9,1.3,7.6c-11.4,5.2-23.4,8.6-34.2,15.3l1.4,1.7
		c-1.4-3.6-3.9,0.1-6-0.3l-3.2,2.8l1.1-0.9l1.4,1.5l-1,1.1c-1.6-3.7-3.9,0.1-6.2-0.3c-3.6,2.3-6.8,6.9-3.6,10.5l2.9,3.2l15.9-14.6
		c-6,9.4-18.2,13.5-14.9,25.2c2-0.8,1.6-2.8,1.8-4.5c2.1,3.7-4.8,4.8-0.3,7.6c3.4-2.4,6.8-6.9,3.6-10.5c-0.6,1.3,0.5,2.1,1.3,3
		c2.5-3.1,4.2-5.6,8-8.8c2.1,5.9-1.9,10,0.8,15.3c0.6-1.5-0.6-2.2-1.3-3.1c-2,0.9-1.6,2.8-1.8,4.5c0.9,0.9,1.5,2,3,1.6
		c-0.6,2.6,1,6.1-1.8,7.6l1.4,1.7c6.6-1.7,3.4-10.5,6.7-15c-2.6-2.2-0.7-6.1-1.1-9.2l3.2-2.9c-3.1,6.8-0.7,16.1-4.1,22.7
		c15.5,14.6,38.9,18.4,59.8,24l1.7-1.4c19.5,5.2,39.4,1.3,56.6-5.1c-0.6,1.5,0.5,2.2,1.3,3.1c-38.1,11.4-85.4,8-116.4-17.4
		c-2.9,1.5-1.2,5-1.9,7.6c17.7,11.3,37.3,18.6,58.4,22.5c2.1-1.8,5.7,1.1,9.1,0.4c18.2,0.6,34.7-3.3,50.7-8.5
		c-23.4,12.7-57.3,16.4-82.4,4c-15.6-2.3-28.9-8.9-40.3-20.1l-15.1-0.7c1-6-0.2-12.5-3.9-15.5c-0.7,5.6,0.5,16.2-2.6,22.7
		c14.8,0.7,8,19.6,15.5,28.2l-2.7-4.7c-6.1-10.1-14.2-19.5-12.3-32.6c-1.7-1.7-3-4.1-5.9-3.2l-1.5,1.4c0.8,0.9,1.5,2,2.9,1.6
		c-6.4,7.5,3.7,16.3,5.1,24.7c7.4,10.7,14.3,21.7,16.7,34.3c-3.3-6.8-6.5-13.5-9.7-20.3c-7,2.3-0.3,7.1-0.5,10.7
		c-4-4.6-9.7-8.6-6.9-15.6c0.2,3,3.4,5,4.2,7.8c7.1-8.2-6.9-16-8-24.8c1-2.8-1.3-4.4-2.8-6.2c-6,4.7,1.3,11.9,0.7,18.3
		c-4.2-8.7-0.6-25.6-15.6-25.1c-4.9-2.7-9.7-10.1-14.8-8.2l4.3,6.2l1.5-1.4c-0.6,1.3,0.6,2.1,1.5,3c-5.5-6-13.1-7.5-16.1-14.4
		c-0.4-0.1,6.7,7.9,10.4,5l-21.9-20.7c2-0.5,5,1.5,6.1-1.3l1.5,1.7c2.8-1.5,1.2-5.1,1.8-7.6l-1.4-1.7l1.5-1.4l-5.8-4.8l-1.7,1.4
		l-7.2-7.8c-2,0.8-1.6,2.8-1.8,4.5l-2.9-3.2l1.7-1.4l-8.8-8l1.5-1.5l-4.3-4.8c7.1-4.5-6.8-3,0.3-7.5c-1.5-1.9-3.8-3.5-2.8-6.3
		c12.3,7.1,4,22.8,17.1,28.3c5.2-3.3,9,8.5,15,3.6c-1.5-1.8-3.8-3.4-2.8-6.2l1.7-1.4c-3.3-10.6-16.1-13.8-17.2-25.2
		c-1.3-0.5-2.1,0.6-3,1.3l-0.2,4.6l-2.9-3.1c9.5-4.9-4.3-8.7-3.9-14c-2.9,1.5-1.2,5.1-1.8,7.6c-2-1.7-2.2-4-2.8-6.2l1.4,1.5
		c0.9-3.4-6.6-12-5.3-17c-1.9-1.7-2.2-4-2.8-6.2c0.8,0.8,1.5,2,3,1.6c2.1-2.3-1.8-6.1-2.7-9.3l1.4,1.5c4.8-3.4-4.2-7.2,0.5-10.6
		c-2.6-1.7-0.8-5.1-1.1-7.7l3.2-2.9c-1.4-1.3,1.9,4.5,4.3,6.4c4.3-4.4-0.6-9.2-0.9-13.7c1.3,0.4,2.1-0.6,3-1.5
		c-5.4-2.3-1.6-8.2-2.4-12.3l4.3,4.8l1.5-1.4l1.4,1.5l-6.2,2.8l4.3,6.4c-1.5-0.6-2.2,0.5-3.1,1.3c1.5,2.7,6.1,4,4.2,7.8
		c-1.3-0.6-2.1,0.5-3,1.3c-0.3,7.3,4.5,12.8,8.3,18.6c3.6-1.2,6.1,4.5,9.1,0.4c-3.8-3.3-9.2-5.8-10.2-12.7
		c6.1,8.8,14.4-0.6,19.5,8.5c1.9-0.8,1.6-2.8,1.7-4.5l1.5,1.7l3.1-2.9c-9.8-4.3,2.1-13.4-10-14.1c-0.7-8.6-9.1-11.4-9.9-18.8
		c-5.6,2.1-8.4-4.7-10.2-8l-3.2,2.8l0.8-16.7c3.1,14.3,15.9,22.4,21.4,34.5c2.3,3.6,5.6,4.8,8.8,6.6c4.2-2.9-0.8-6.2-1.2-9.3
		c5.2,4.8,14,5.7,19.6,5.6c-3.4-4.5-11.3-9.9-10-17.2l1.5,1.5c2.2-4.1-3-9.3-0.9-15.4c-3.7-1-5.8-5.3-8.8-7.9l6.4-4.3
		c-4.3-0.4-3.8-5.4-5.8-7.9c7.9,2.9,7.6,11.4,11.4,17.3c2-0.9,1.6-2.8,1.8-4.5c1.6,2,4.3,2.2,5.8,4.8c1.1-1.9,2.9-1.4,4.6-1.4
		c2,6.5,11.2,4,10.2,11.2l4.3,4.8c1.9-0.9,1.5-2.8,1.7-4.5c-3.6-4.1,1.1,2,3.1,0.1l2.8,3.2c3.5-3.7-5.6-10.2,2.2-13.7
		c-4.8-10.5-13.2-17.1-17.2-26.7c-2.4-6.9-10.8-3.7-11.6-11.1c-2,0.9-1.6,2.8-1.8,4.5c-3.2-5.7-3.7-16.3-13-15.9
		c0.1-1.6,0.5-3.6-1.3-4.6l-1.7,1.5l3.6-10.6c-2.7,9.1,5.1,15.8,11.3,20.4c4.2-3.4-0.7-7.2-1-10.8c1.3,0.6,2.1-0.5,3-1.3
		c-1.6-2.3-0.2-5.7-2.6-7.8c5.7-3.9,2.5-12.1,3.8-18.1l4.3,4.8c2-0.9,1.6-2.8,1.8-4.5c7.1,4.1-1.9,11.2,0.7,18.3
		c-0.8-0.8-1.5-2-3-1.6c-3.2,4.8-1.3,11.4-0.7,16.8c4.1,2.5,3.1,6.9,7.2,9.5l-3.2,2.9c6.1,15.9,20.4,11.9,29.4,24.1
		c1.7,0,3.7,0.5,4.7-1.3c-4.6-5-0.9-13-3.9-18.6c8.1-4.2-2-11.2,3.8-16.6l-1.2,1.1l-4.3-4.8l1.2-1.1c0.8,0.9,1.5,2.2,3,1.7
		c5.1-6.7-4.5-7.7-5.5-14.1c-0.8,0.9-2,1.6-1.6,3l-2.9-3.2c-0.8,1-2,1.6-1.6,3c-1.7-0.1-3.6,0.2-4.5-1.7c-0.4-4.6,4.7-1.4,6.2-4.3
		l-8.7-9.5l-3.2,5.9c-1.6-1.8-3.9-3.4-2.8-6.2c1.3,0.6,2.1-0.6,3.1-1.5c-1-1.5-3.6-2.5-2.9-4.7l1.5-1.4c0.8,3.7,4.8,6.3,7.2,9.5
		c5.7-0.2,7.2,5,10.2,9.6c2.9-2,1.4-6,2-9c4.5,0.8,1.7-4.6,4.8-5.8c0.8,0.8,1.5,2.1,3,1.6c7.4-14.2,16.5-29.3,33.4-33.6l-0.1,3
		c-11.1,2.8-12.4,10.6-22.1,17.4c-9.1,10.3-15.9,21.9-13.9,37.5c5.5,22.7,12.7,44.9,21.4,66.5l4.4,3.3c-8.2,1.1-16.4,2.2-24.6,3.5
		l1.2-1.1l1.4,1.5l-1,1.1c-8.4-2.4-18.4,1.2-27.6,1.8c-14,1.7-15.3,17.1-28.3,21.6c-4.9,3.1-3.9,10.9-2.3,15.2
		c6.2,9.4,19.4,7.2,23.6,17.9c3.8-1.3,6.1,4.3,9.1,0.4c0.6-1.5-0.5-2.2-1.3-3.2c12.6,2.1,23.9,11,37.8,6.3
		c4.5-2.4,8.5-6.4,12.7-10.2l-1.5-1.5c-3.8,0,1.6-0.3,1.5,1.5c2.6-2.8,6.9-5.1,7.9-8.8l-1.4-1.5c0.9-0.8,2-1.5,1.6-3l-1.4-1.6
		l-6.4,7.4l1-1.1l1.5,1.6l-1.2,1.1l-1.4-1.5c-5.7,5.9-13.7,12.5-23.4,11l20.8-21.9l-1.4-1.5c-5.8,2.8-8.9,6.9-14.3,10l1.2-0.9
		l1.4,1.5l-1,1.1l-1.5-1.7l-3.1,2.9l1-1.1l1.5,1.7l-1.2,0.9l-1.4-1.5c-3.2,3.4-8,6.1-9.6,10.2l-7.6-1.8c7.2-10,18.4-17.1,28.4-23.2
		c-5.9-2.7-12.4,3.5-18.5,5.3c-2.7,6.2-11.8,9.4-12.9,16.2c-7.9-7.4-19.4-16.2-21.6-26.9c1.6-8,9.2-11.8,15.8-14.6
		c-4.8,4.8-16.2,7.2-14.3,14.7c1.5,0.6,2.2-0.6,3.1-1.5c0.1,2.2-3.8,4.4-0.3,6.2l-1.1-1.2l3.2-2.9l1.1,1.2c-1.8,1.6-4.2,3-3.3,5.9
		l1.4,1.7l9.5-8.7c-1.7,4-7.9,7.8-5.1,12c10.1-14.4,27.3-23.6,43.9-27l-3.2,2.8l1.5,1.7c-12.9,6.8-28.6,16.4-34.9,30.4l1.4,1.7
		c13.5-13.5,29.7-26.9,47.2-33.1c0.6-1.3-0.6-2.1-1.3-3l-0.1,1.5l-4.6-0.2L92,347c-4,0.7,4.6,0.8,6.1-1.3c2.9,4.2-3.4,8-5.1,12
		c-1.7,0-3.5-0.5-4.6,1.4c-0.6,1.3,0.6,2.1,1.3,3c6.4-2.7,14.7-7.1,17.3-12.9c-0.8-0.9-1.5-2-3-1.6l0.1-3.1c3-0.9,4.2,1.5,6,3.4
		c1.9-0.9,1.6-2.8,1.7-4.5l-2.9-3.2c0.9-0.8,2.2-1.5,1.7-3c11.9,12.7,31.1,15.6,49.5,17.5c1.4-0.4,2.1,0.8,2.9,1.6
		c2-1.6,5.7,1.1,9.1,0.4c14.5-3.9,31.3-0.8,43.2-11.8C205.3,360.2,183.3,375.5,167.9,386.9z"/>
	<path class="st4" d="M182.3,166.5C99.5,168.6,7.8,207.5-24.2,288.3c-5,7.8-7.7,18.2-10.3,25.5c0.5-2.2,0.3-6.8,2.3-13.1
		c-0.2-0.3,0.3-0.9,1.4-3.8c27-79.8,114.2-128,193.3-132.8c6.3,1.4,15-1.2,22.8-0.5l35,3C208.1,173.2,196.1,164.4,182.3,166.5z"/>
	<polygon class="st5" points="184.6,454.8 186.3,451.8 186.2,454.8 	"/>
	<polygon class="st5" points="158.1,435.3 159.6,435.4 159.4,439.9 157.9,439.9 	"/>
	<path class="st5" d="M151.5,241.4c-2.5-8.1-2.8-11.4-3.7-20C155.3,227.6,150.8,232.6,151.5,241.4z"/>
	<path class="st5" d="M147.8,257.9c-1.2,1.8-4.8,4.4-1.9,6.1l-2.8-4.7c-3,4.4-1.6,11-2.3,16.7c-0.5-5.3-0.8-12.1-7-14l-1.5,1.4
		c-1.9,1.5-1.2-7-1-10.8c3.9-1.7,3.1-5.5,3.4-9c-7.9-6.3-2.2-11.9-5.1-20c-2.9-7.8,5.7-6,6.6-11.9l7.2,10.9
		c-0.8-1.9-2.8-1.6-4.5-1.7c-2.8,1-1.2,4-1.7,6c-1.5-0.4-2.2,0.6-3.1,1.5c0.9,3,4.7,5.4-0.3,7.6c2,1.6,3.2,4.7,5.9,4.8
		c0.7-1.9-0.1-7,0.5-10.7c-0.3,4.2,2.6,7.3,4.1,10.9c-1.5,0.3-2.2-0.8-3-1.7c-2.9,1-1.2,4-1.8,6.1c0.8,0.8,1.5,2,2.9,1.6l3.2-2.9
		c-0.6,7.9,5.9,9.1,5.3,17L147.8,257.9z"/>
	<path class="st5" d="M149.6,216.9c-4.9,1.8-7.7-3.3-8.8-6.6c0.7-2.1,1.2-4.4,3.2-5.9C142.7,209.8,147,214.3,149.6,216.9z"/>
	<path class="st4" d="M126.2,424.2c-0.4-3.2,1.5-17.8,10.1-19.4L126.2,424.2z"/>
	<polygon class="st4" points="190.2,499.2 191,500.6 186.4,503.4 185.6,502.1 	"/>
	<path class="st4" d="M115.6,500.4c25.2,4,47-1.7,68.9-7.5l2.8,3.2C166.9,506.8,139.3,503.6,115.6,500.4z"/>
	<path class="st4" d="M185.5,433.5c2.3-13.7-0.5-25.7-9-35.5l0.2-4.6C189,403.4,189.5,419.5,185.5,433.5z"/>
	<path class="st4" d="M182.4,462.3l-2.4-0.2l-16.8-3.8c3.8-6.9,5.2-14.8,7.2-22.5c1.8,4.2,1.3,9.1,5.5,12.5
		c3.5-9.6-4.5-18.6-3.3-29.1c0.7,8.2,4,15.6,6.6,23.1c-0.3-5.2,1.9-15.1-0.5-21.4c-0.9-4.6-3.9-8.3-2.5-13.8
		c6.3,16.5,3.2,36.2,6.7,53.6L182.4,462.3z"/>
	<path class="st4" d="M82.8,485.3l1.5-1.4c28.8,3.8,61.1,12.4,86.9-2.3l4.5,4.8C147.8,499.9,111.4,494.7,82.8,485.3z"/>
	<path class="st4" d="M145.9,468.2c17.3-20.8,21.4-47.9,21.8-76.8C171.8,418.5,164.4,449.3,145.9,468.2z"/>
	<polygon class="st4" points="165.5,507.2 165.4,508.8 162.5,508.7 162.5,507.1 	"/>
	<path class="st4" d="M81.6,477.6l0.1-3c3.4,0.6,8.1-1,10.5,2c6.8-0.2,18.1,2,25.9-0.3c5.6-0.4,10.2,1.7,16.8-0.8l1.5-1.4
		c-6.4-4.8-16.3,1.5-25.8-1.2c13.5-0.9,9.2-2.4,21.6-5.2c0.8,0.9,1.5,2.2,3,1.7l-1.5,1.4c1.4,1.1,2.2,3.8,4.4,3.3
		c5.4,0.7,14.4,0.5,19.9-3.7l2.9,3.2c-13.8,8.6-33.7,5.9-48.9,5.3c11,7.9,30,7,42.5,3.5l10.9-5.7
		C143.8,491.1,106.4,484.1,81.6,477.6z"/>
	<path class="st4" d="M162.8,398.9l1.4,1.7c-3.7,9-0.7,21.2-4.4,30.3l4.6-35C164.8,397.4,163.6,398.1,162.8,398.9z"/>
	<path class="st4" d="M141.5,465.1l1.5,1.5c-18.4-5.8-28.3-23.7-36.3-39.8c1.5-0.9,2.5-3.5,4.7-2.7c0.5,2.1-2.2,2.9-3.3,4.4
		c0.9,1.9,2.8,1.5,4.5,1.7c2.2-1.8,2.2-4.5,4.8-5.8c0.7-3.5-1.4,2.9,1.5,3c5.6-1.8,2.3-8,3.5-12.1c4.2,8.9-4.2,20.5-4.2,28.8
		c9.9-12.5,20-27.7,23.3-44.6l4.8-4.5c-5.8,19.4-13.5,37.7-22.3,55.5l1.4,1.5c13.5-10.1,18.1-24.5,23-38.6
		c-1.4,11.8-2.9,23.6-9,33.2l1.2,6.1c0.6-1.5-0.6-2.3-1.3-3.1c-2.9,3.3-5.4,8.6-3.6,12.1c6.4-3.3,16.3-18.3,19.6-29.6
		C151.8,443.7,149.9,455.8,141.5,465.1z"/>
	
		<rect x="138" y="424.5" transform="matrix(4.764123e-002 -0.9989 0.9989 4.764123e-002 -291.9623 544.3748)" class="st4" width="3.1" height="1.6"/>
	<path class="st4" d="M83.5,468.5c13.5-1.5,25.9-6.4,38.6-10.5l4.3,6.4C113.8,470.4,98.6,469.4,83.5,468.5z"/>
	<path class="st5" d="M119.8,236.9c1.9-5-3-7.3-0.9-12.3l7.2,8c-1.3-0.6-2.1,0.5-3,1.3c6.4,4-1.1,13,5.3,17
		C121.4,249,122.6,241.6,119.8,236.9z"/>
	<path class="st5" d="M117.1,364.9c-9.8-4.3-8.5,7.8-12.7,11.7c-2.5-6.9,8.2-13.3,6.9-19.6c-5.5,2.6-9.9,8.2-15.6,9.9
		c4.5-4.9,11.3-16,17.3-12.9c2.7,0.5-0.1,8.4,5.8,6.4l4.8-4.4C124.6,360.4,119.2,361.9,117.1,364.9z"/>
	<path class="st5" d="M75.4,344.6l1-0.9l1.5,1.5l-1.2,1.1c-7.4-3.4-14.5,4-21.6,6.7c-4.7,0.6-8.9,3.1-12.5,7
		c12.4-16.2,35.7-20.3,48.1-19.2C85,340.5,80.5,343.4,75.4,344.6z"/>
	<path class="st5" d="M186.4,348.1c5.4-7.5,16.1-15,25-17.1C207.1,340.5,196.5,347.4,186.4,348.1z"/>
	<polygon class="st5" points="84.3,247.5 85.7,247.6 85.4,255.1 83.9,255 	"/>
	<path class="st5" d="M80.5,331.1c-1-2.8-4-1.2-6.1-1.8c0-8.3-11.5-8.5-6.7-18.6l8.7,9.5l-1.7,1.4C75.1,325.5,80.2,327.4,80.5,331.1
		z"/>
	<path class="st5" d="M78.1,317.3c-0.7-8.9-12.4-10.1-9.7-20.3C72.3,304.9,79.1,307.8,78.1,317.3z"/>
	<path class="st5" d="M45,376.8l-1.4-1.5l14.1-10.1C55.6,371.5,47.6,372.2,45,376.8z"/>
	<path class="st5" d="M28.5,337.9c-2.2-6.3-13.6-5.4-11.6-14.2L30,336.5c2.4-5.9-7.8-11.2-6.8-18.6c-0.1,2.7,1.2,4.2,2.6,6.2
		l3.4-1.4c1.9,1.8,1.8,4.5,4.3,6.2l6,0.3c-4.2,2.9,0.7,6.2,1.2,9.2C36.6,338.3,30.5,331.2,28.5,337.9z"/>
	<polygon class="st5" points="25.9,498 28.8,499.6 25.8,499.5 	"/>
	<polygon class="st5" points="28.7,399 31.8,399.2 28.6,402 	"/>
	<path class="st5" d="M21.1,400.2l1.4,1.5l-4.3-6.2l1.5-1.4l-1,0.9l-1.5-1.5l1.2-1.1l5.8,6.4C22.8,398.3,22,399.4,21.1,400.2z"/>
	<polygon class="st5" points="12.9,412 14.5,410.5 17.3,416.8 16.1,417.9 6,406.7 7.1,405.6 	"/>
	<path class="st5" d="M12.7,450.2c-2.9,0.7-4.2-1.7-5.9-3.4c3.6-1.4-0.2-4,0.3-6C7.9,444.3,10.7,448.3,12.7,450.2z"/>
	<path class="st5" d="M10.7,393.7c0.8,0.9,1.9,1.7,1.3,3c-3.1-2.1-10-2.1-8.8-8l9,3.5L10.7,393.7z"/>
	<path class="st5" d="M7.6,393.5c-2.9-3.8-0.1,1.1,1.6,0.1L7.6,393.5z"/>
	<path class="st4" d="M10.4,299c-0.6-2.1-0.8-4.5-2.8-6.2c2-1.5,0.4-5.5-1.1-7.7L5,283.6c-2.3,4.8,0.9,11.9-3.8,16.6l-0.3,7.6
		l-4.6-0.2c0.7-7-7.5-6.9-10.2-12.7c4.8-2.6-1.9-4.8-1.1-7.7c3,2.7,5.2,14.2,11.7,11.1l0.1-3l1.4,1.5c2.5-4,2.8-11,0.7-15.2
		c3.5-2.2,4.8,4.8,7.6,0.3c-1.8-3.2-1.3-8.5-5.6-9.5l0.2-4.6c4.8,4.5,8.1,9.6,8.4,15.7c-4.2,3.9,0.6,8.2,0.9,12.3l1.4,1.5L10.4,299z
		"/>
	<path class="st5" d="M-2.4,414.3c-2,2.4,1.8,6.3,2.7,9.4c-1.5-0.6-2.2,0.5-3.1,1.3c0.8,0.9,1.5,2.1,3,1.6L0,428.2
		c-6.5,2.1-2.8-4-5.8-6.4c3.6-1.4-0.2-4,0.3-6c-16.7-0.4-12.8-21.4-26.3-25.6c2-0.8,5.1-5.4,0.3-7.6c1.7,0.1,3.7,0.5,4.6-1.3
		c-1.6-2.3-0.2-5.7-2.6-7.8c7,8.2,17.2,18.4,24.7,25.5l1.5-1.4l-0.2,4.6c-1.5-0.6-2.2,0.5-3.1,1.3c8.1,0.9,1.4,9.6,7.1,12.5
		C-0.3,415.1-0.9,414-2.4,414.3z"/>
	<path class="st7" d="M-12.9,310.2c-2.8-1.1-0.9-4.1-1.3-6.1C-14.6,306.4-11.8,307.6-12.9,310.2z"/>
	<polygon class="st7" points="-16.2,314.6 -13.4,320.9 -16.4,317.7 	"/>
	<path class="st4" d="M-54.4,316c1.7-7.1,9.3-4.6,14-7L-54.4,316z"/>
	<polygon class="st4" points="-60.8,324.8 -40.7,315.1 -45.4,319.5 	"/>
	<polygon class="st4" points="-43.2,305.9 -43.3,307.3 -46.3,307.2 -46.3,305.7 	"/>
	<polygon class="st4" points="36.6,189 47.2,190.9 47.2,192.4 	"/>
	<path class="st4" d="M33.2,196.3c-5.5-3.7-11.9-6-19.5-5.4C20.1,184.6,30.1,190.3,33.2,196.3z"/>
	<path class="st4" d="M12,193.9c6,2.9,15.4,1.2,18,8.5C23.8,200,19.1,194.2,12,193.9z"/>
	<path class="st4" d="M-3.4,199.3c6.5-10.3,18.5,0.8,25.6,5.7l1.3,3.1C14.5,205.3,6.6,200-3.4,199.3z"/>
	<path class="st4" d="M8.4,207.4c3.4,2.9,9.8-0.5,11.9,5.1C16.2,215.5,13.4,206.9,8.4,207.4z"/>
	<path class="st4" d="M10.5,225.8c-10-7.6-23.4-8.5-36-10.7c9,0.2,27.2,0.7,37.7,7.9C11.4,223.8,10.1,224.4,10.5,225.8z"/>
	<path class="st4" d="M-17.6,210.9c3.2-1.7,3.2-4.9,4.9-7.4l20.8,11.7C-0.5,213.7-8.1,210-17.6,210.9z"/>
	<polygon class="st4" points="0.9,204 0.8,205.6 -2.2,205.5 -2.2,203.9 	"/>
	<path class="st4" d="M-3.7,239c-14.1-1.1-28-6.9-42.5-3.5c10,1.8,20.1,3.5,27,11.9c-2.2-0.7-3.2,1.8-4.7,2.8c-1-2.8-4-1.2-6.1-1.8
		l-1.5,1.4c-3.2-0.9-9.8-0.9-13.7,1l-1.7,1.4c2.6-5.1,2.9-13,0.8-18.2c2.1-0.4,5,1.5,6.2-1.2C-36.2,234.5-11.3,230.3-3.7,239z"/>
	<path class="st4" d="M-38.3,229.8c4.5-2.4,4.3-7,6.5-10.4c-0.7-0.9-1.9-1.7-1.3-3c10.4,2.6,19.2,8.3,28.4,13.5
		C-17.9,229.7-26.1,227.5-38.3,229.8z"/>
	<path class="st4" d="M-37.9,254.2l22.9,1C-21.5,259.5-29.2,252.3-37.9,254.2z"/>
	<polygon class="st4" points="-32.4,268.2 -21.7,265.6 -27.8,268.4 	"/>
	<path class="st4" d="M-46.2,270.5l-1.1-12.1l19.7,2.4C-33.8,264.1-40.9,265-46.2,270.5z"/>
	<path class="st4" d="M-67,324.5c0.1,2.3-2.6,3.3-1.7,6.1l2.9,3.1c7.6-4.1,15.1-8.8,23.3-11l-0.1,1.5c-8.3,4.7-17.5,7.1-25,14.1
		c2.1-2.4,2-5.6-1.1-7.6c-7.7,13-9.9,30.5-9.7,45.2c9.9-12.5,27-24.9,36.4-30.3l-23.8,21.8l2.9,3.2l1.5-1.4
		c-3.8,5.4-9.2,10.1-11.3,16.1c1.6-5.6,6.5-9.8,9.8-14.7l-2.9-3.2c-5.2,5.3-8,11.7-11.4,17.8c-9.5-34.6,6.9-69.9,31.5-93.1l17.2-9.8
		C-40.3,295.4-59.2,307.3-67,324.5z"/>
	<path class="st4" d="M-42.2,284.5c-1.5-2.7-1.2-5.9-4.2-7.8l12.1-0.9L-42.2,284.5z"/>
	<path class="st4" d="M-71.1,350.3c-5.1-4.6,17.5-14.3,26.8-20.2L-71.1,350.3z"/>
	<path class="st4" d="M-59,350.8l-15.8,14.6c2.5-15.4,20.1-18.5,30.2-27.7C-44,346.3-54.6,345.6-59,350.8z"/>
	<polygon class="st4" points="-48.1,378.8 -46.6,381.8 -47.1,392.6 	"/>
	<path class="st4" d="M-59.6,399.7c5.8-5,2.6-14.2,3.9-21.2C-53.5,385.1-47,397.3-59.6,399.7z"/>
	<path class="st4" d="M-60.9,391.9c0.8,0.9,2,1.7,1.5,3.2c-1.7-0.2-3.7,0.2-4.5-1.8l3.6-13.5C-60.5,383.8-60.8,389.7-60.9,391.9z"/>
	<path class="st4" d="M-66.8,390.2c-6.2-2.1-0.2-8.9,2-12.1L-66.8,390.2z"/>
	<path class="st4" d="M-68.5,394.7c-0.9-2-2.9-1.6-4.5-1.8l4.6,0.2L-68.5,394.7z"/>
	<path class="st4" d="M239,172.2c-3.1,1-5.2,2.7-6.8,5.5c-0.7,1.3-0.6,3.1-1.2,4.1c-2.6,4.8-3.8,9.5-6.1,14.2
		c-3.7,7.8-3.7,16.4-4.4,25c-0.4,4.8,0.9,9.8-0.8,14.1c-1.4,3.7-3.1,7.3-3.4,11.2c-0.1,1.3,0.6,2.9,0.3,4.4
		c-3,14.1-2.2,28.5,5.2,39.9c1.3,2.1,6.7,2.4,7.8-1.3c0.8-2.7-1.5-5.3-3.3-7.6c-0.6,0.7-1.4-0.4-1.9,0.3c-0.7-2.3,1.9-3.6,1.9-5.2
		c0-3,2.1-5.4,1.2-8.6c-0.9-3-0.7-6.1-1.6-8.9c-2.3-7.9-4.7-15.5-4.1-23.9c0-0.3,1.2-0.4,1.3-0.9c1.3-4.1-0.7-8.9,0.8-13.1
		c2.1-5.8-0.2-12.5,1.6-18.4c1.9-6.3,5-11.7,8.2-17.9c3.5-6.7,10.4-10,16.7-13.1c-4.9-1.1-12.3-3-15.4,2"/>
	<path class="st4" d="M167.5,189.8c-2.5,1.4-4.7,3.4-4.9,6c-0.5,4.5,3.1,8.6,6.8,9.7c4.9,1.5,10.6-1.1,13.7-5.8
		c2.3-3.5,0.9-7.6-1.7-10.4c-5-5.4-13.9-4.5-17.2,2.1"/>
	<path class="st8" d="M167.5,189.8c-2.5,1.4-4.7,3.4-4.9,6c-0.5,4.5,3.1,8.6,6.8,9.7c4.9,1.5,10.6-1.1,13.7-5.8
		c2.3-3.5,0.9-7.6-1.7-10.4c-5-5.4-13.9-4.5-17.2,2.1"/>
	<path class="st5" d="M173.1,202.6c-5.7-0.4-6.6-3.9-5.6-9.4c1.8-1.5,3.4-3.8,6.2-2.7c-0.6,1.3,0.6,2.1,1.3,3
		c0.9-0.8,2.2-1.5,1.7-2.9C182.3,194,178.6,203.4,173.1,202.6z"/>
	<path class="st4" d="M124.2,345c14.6,6.5,30,6,44.7,10.5c16-1.9,33.1-2.2,47-11.8c0.3,4.5-3.1,8.6-6.2,11.5
		c-12.2,11.6-24.7,22-38.9,31.2c-1.7,1.1-3.8-1.8-6.1-1.3c-2.8,0.6-5.2,1.1-6.1,4.2c-0.2-1.2-1.2-2-2-2.3c-2.7-1-4.3,2.1-6.6,3
		c0-0.9-1-0.8-1.4-1.4c-17.8,9.6-39.2,15.5-49.8,34.9c-0.5,0.9-1.5,3.3,0,5c-10,6.1-21,10.6-30.2,18.1c0.9,4.3-4.9,4.3-5.8,7.2
		c-0.4,1.1,1.8,3.2,0.3,4.1c-5.1,3-9.7,8.4-10,14.7c-0.1,1.2-1.4,1.8-1.9,2.6c-1.6,2.9,0.2,6.5-2.9,8.6c1.2-0.8,0.6,0.7,1.1,0.8
		c-3.3,1.5-0.2,3.5,1,5c-3.3-1.4-9.5-1.7-9.2,1.5c0.3,4.4,1.3,11.2-0.9,15.8c-0.5-1.8-0.6-3.8-2-5.2c-1.4-1.4-3.3-2.8-4.8-3.5
		c-4.3-2-8.4-3.7-12.5-6.2c-2.9-1.7-1.3-5-1.2-8c0-0.8,2,0,2-0.5c0.2-4.8,1.2-10-1.5-14.2c-0.9-1.4-1.6-2.9-2.4-4.3
		c3.4,1.2,6.2-1,9.1-2.4c-2.2-4.4-4.3-8.9-6.4-13.3c3.1,1,7.5,1.5,8.3,0c3.4-6.9-4.8-13.2-5.1-20.6c-0.1-4.5-0.3-8.8-1.1-13.2
		c4.7,2.1,8.7,6.5,14,3.5c-1.3-1.1-0.3-3-1.3-4.1c5,0.2,9.2,6.5,14.2,1.5c1-1-0.2-3.8-1.2-5.7c1.9-0.3,3.9-0.5,5.8-0.5
		c2.6,0,5.1,4,7.4,1.2c1.2-1.5-0.9-4.2-0.3-6c0.6-1.5,3.5-0.2,5.1-1.4c-1.7,0.7-0.2-1.6-1.4-1.4c0-1,0.9-1.3,1.4-1.2
		c2.6,0.6,5,1.9,7.5,2c4.8,0.2,8.9-2.9,12.9-5.4c6.4-4.1,11.7-9.2,16.8-14.8c4.8-5.4,6.9-13.8,13.3-16.3c2-0.8,6.6,0.6,7.7-1.8
		c1.5-3.2,4.1-10.3-1.8-11.6c0.2-0.1,0.4-0.2,0.6-0.3c-1.4-0.7-2.7,1.5-3.7,0.4c-1.8-1.9-1.9-4.9-0.6-6.9c0.8-1.2,2.6-1.8,4.2-2.2
		C123.5,344.2,123.8,344.8,124.2,345z"/>
	<path class="st4" d="M136.2,317.5c-4.2-0.7,13.6,17,19.9,19.1c7,2.3,13.9-1.4,20.9-2.9c7-1.5,12.7-7.3,19.6-8.1
		c6.6-0.8,13.3-1.5,20-1.8c6.3-0.2,12.3-2.7,18-5c15-5.8,30.1-10.2,43.2-20.7c2-1.6-3,2-3.4-1.4c-15.3,5.1-21.8,6.5-37.5,11.5
		c-5,1.6-9.1,4.3-13.4,7.5c-3.8,2.8-8.2,3.5-12.4,3.6c-4.6,0-9.2,0.6-13.7,0.8c-4.5,0.2-9,1.1-13.4,2.9c-3.1,1.2-7.9,1.5-9.3-1.9
		c-1-2.4-0.6-7,2.9-6.6c3.6,0.4,6.9,0.2,10.6,1c4.8,1.1,9.8,1.4,14.7,0c12.4-3.7,22.9-9.9,34.8-14.4c3.4-1.3,8-1.6,9.3-6.2
		c-2.6-0.1-5,0.8-7.5,1.6c-10.3,3.2-19.3,7.8-29.4,11.2c-5.7,1.9-11.4,3.6-17.5,3.1c-3-0.2-5.9-1.1-8.9-1.9
		c-2.2-0.6-5.3-2.3-6.7-0.7c-0.9,1-1.9,2.8-2.1,4.6c-1.4-2.2-11.3,3.1-13.1,3.8C156.3,318.7,146.4,319.3,136.2,317.5z"/>
	<path class="st4" d="M166.9,348.3c8.3-3.6,15.3-9.6,23.9-12.7c0.1,0,0.9,1.2,0.6,1.4C181.2,344.6,180.9,343.8,166.9,348.3z"/>
	<path class="st4" d="M147.1,344.2c5.2-1.7,9.6-4.6,15-5.7c0.5-0.1,1.4,0.9,1.2,1.1c-8.5,5.3-9.4,4.5-17.8,6.4
		C145.2,346,146.1,344.6,147.1,344.2z"/>
	<path class="st4" d="M199.9,347.3c6.1-2.1,10.4-7.7,16.2-8.6c0.9-0.1-0.9,2.1-1.4,2.4C210,343.6,206.4,348.5,199.9,347.3z"/>
	<path class="st4" d="M110.9,431.3c2.1,0.7,4.7-3,6.2-4.3c-0.9,1.4-0.1,1.7,0.2,3c1.1-0.5,0.7,0.6,0.5,1.2c-0.2,0.8,2.7-3.5,3.5-4.2
		c-0.6,4.7-4.7,12-3.3,16c0.2,0.6-0.4,2.7,0.8,2c0.9-0.6,2-0.7,2.7-1.5c2.2-2.4,10.5-17.5,13.2-20.4c0.9-1.1-0.7,1,0.2,1.4
		c-2.3,3.7-11.2,20.8-11.7,25.1c-0.2,1.5,1.3,3.8,3,3.5c3.6-0.6,11.7-10.6,18.3-24.3c0.8,1.4-9.6,20.8-10.2,22.1
		c0.6,0,3.7-3.4,4.2-3.4c-1.2,2.7-5.6,8.7-5,11.8c0.4,2.3,2.7,2.7,4.5,2c3-1.1,4.8-3.8,7.3-5.8c-0.6,3.1-2,5.9-4.4,7.9
		c-0.6,0.5-1.9,0.4-2.8,0.1c-4.4-1.4-7.5-4.5-11.3-7.3c-4.3-3.1-6.9-7.2-10-11.5c-3.2-4.4-6.5-8.4-7.4-13.8
		C109.7,431.2,110.4,431.2,110.9,431.3z"/>
	<path class="st4" d="M164.9,457.8c2.2-2.9,3-9.6,4.7-12.7c0.5,2.4,1.8,4.4,1.1,6.8c1.9-0.7,0.2-0.9,1.5-1.8c0.6-0.5-0.5-4.5,0.4-4
		c1,0.5,2.7,3.8,3.1,3.9c2.6,0.9,2.6-4.4,3.5-6.6c1.2,4.4,1,13,0.4,17.6C175.1,459.5,169.3,459.5,164.9,457.8z"/>
	<path class="st4" d="M167.7,391c0,0,1.9,49.4-22,77.4C145.7,468.4,175.5,441,167.7,391z"/>
	<path class="st4" d="M176.8,396.9c0,0,8.9,7,9.3,21.4c0,0,1.5-11.9-9.1-23.1L176.8,396.9z"/>
	<path class="st4" d="M81.3,270.1c4.7,19.6,13.5,42.9,31.9,53.2c8.1,4.5,20.4,3.4,27.5-0.5c2.9-1.6,8.9-0.5,9.4,2.3
		c0.8,3.7,3,6.8,6.1,9.1c0.5,1.9-1.2,3.7-2.9,4.7c-3.6,2-7.2,3.9-11.1,5.3c-6.4,2.4-12.2-1.5-18.9-2.4c-2.2-0.3-3.9-2.4-5.8-2.7
		c-1.8-0.3-2.8-1.8-4.5-2.2c-2.9-0.7-5.6-2.9-8.5-4.8c-2.7-1.7-7.8-4.3-9.7-7c-10.1-14.1-11.8-24.6-16.8-39.8
		c-2.8-8.5-5.9-16.4-2.2-27.1C79.1,260.8,79.9,266.2,81.3,270.1z"/>
	<path class="st1" d="M81.3,270.1c4.7,19.6,13.5,42.9,31.9,53.2c8.1,4.5,20.4,3.4,27.5-0.5c2.9-1.6,8.9-0.5,9.4,2.3
		c0.8,3.7,3,6.8,6.1,9.1c0.5,1.9-1.2,3.7-2.9,4.7c-3.6,2-7.2,3.9-11.1,5.3c-6.4,2.4-12.2-1.5-18.9-2.4c-2.2-0.3-3.9-2.4-5.8-2.7
		c-1.8-0.3-2.8-1.8-4.5-2.2c-2.9-0.7-5.6-2.9-8.5-4.8c-2.7-1.7-7.8-4.3-9.7-7c-10.1-14.1-11.8-24.6-16.8-39.8
		c-2.8-8.5-5.9-16.4-2.2-27.1C79.1,260.8,79.9,266.2,81.3,270.1z"/>
	<path class="st4" d="M33.1,361.8c0.9,0.2,1.8,0.1,2.5-0.4c-1,1.1-1.9,2.7-1.1,3.6c0.7,0.8,2-0.7,3-1.3c0.1,0.8-0.6,0.8-1,1.1
		c-0.5,0.4-0.5,1.1-0.6,1.7c-0.3,1.1-0.3,2.2,0.4,3.1c0.6,0.9,1.8,1.3,2.6,0.6c1.1-1,2.1-2,3.3-2.9c-1.5,1.8-1.8,4.5-0.3,6.5
		c0.1,0.1,0.6,0.5,0.9,0.2c1.4-1.5,2.6-3,4.2-4.3c1.1-1,2.8-1,4.2-1.6c-0.8,1-2,1.4-3,2.1c-1.5,1.2-2.6,2.4-3.8,3.8
		c-0.3,0.4-0.9,0.8-0.7,1.4c0.2,1,1.1,1.9,2.1,1.4c4-2.3,7-5.6,11.1-7.5c-1.2,1.9-3.7,3.1-5,5.1c-1.1,1.7-1.8,3.2-3,4.9
		c-0.4,0.6-0.4,2.8,0.1,2.9c0.8,0.3,1.2,2.1,2.2,1.4c1.7-1.1,3-3.3,4.6-4.5c1-0.8,1.9-1.5,2.8-2.3c3.5-3.1,6.3-6.8,10.7-8.3
		c0.8-0.3,1.6-1.2,2.5-1.2c-0.6,1.5-2.4,2.5-3.6,3.1c-0.6,0.3-1.3,0.3-1.7,0.8c-3.2,4.6-7.1,7.6-11,11.3c-1.2,1.1-2.1,2.8-1.7,4.1
		c0.6,1.7,3.2,2.6,5.2,2.1c0.7-0.2,1.2-1.1,1.5-1.7c2.2-3.4,4.7-6.2,8.1-8.5c2-1.4,3.6-2.7,5.7-3.9c2.8-1.7,5.7-2.8,8.7-3.9
		c1.1-0.4,0.3-0.8,0.8,0.7c-7,3.7-10.9,7.3-16.2,13.5c-1.2,1.5-3.3,3.1-3.5,5c2.2,0.6,5.5,1.4,7.5,0.8c2.9-0.8,5.5-2.6,7.8-4.7
		c2.6-2.3,4.7-5,7.4-7.2c1.9-1.6,2.9-4,5.1-5c1.8-0.8,3.8-1.3,5.9-1.6c0.8-0.1,2.2-0.2,2.2,0.8c0,1.5-2.2,2.1-3,3.3
		c-1.4,2.1-2.7,3.4-4.5,5c-3.3,3-6.2,5.6-10,8c-1.3,0.8-2.6,1.1-4,1.4c-3.1,0.5-6,0.5-9.1,0.7c-4.1,0.3-7.8-1.2-11.8-2
		c-1.3-0.3-2.8-0.3-3.8-1.2c-3.6-3.6-6.5-7.4-10.3-10.9c-2.6-2.4-5.4-4.2-7.4-7.2c-1.7-2.6-2.6-5.5-2.7-8.6
		C33.2,361.7,33.2,361.7,33.1,361.8z"/>
	<path class="st4" d="M194.6,510.8c0,0-51.3,29.7-120.7-16.1c-0.8-0.6-1.8-1.4-3.2-1.8c-0.6-0.1-1.3-0.4-1.5-0.7
		c-2.3-2.4-3.1-5.7-6.3-7.5c-1.5-0.9-3.4-2.6-5.1-3.4c-3.8-1.8-5.7-7.3-9.9-7.1c-2,0.1-1,4-1.9,6.3c-0.6,1.4-1.1,3.8,0.3,4.7
		c1.1,0.7,3.3,0.8,4.3,0c2.1-1.7,4.6-2,6.1,0.3c1.4,2.1,1.7,3.3,3.6,4.9c2.2,1.8,1.9,0.9,4.2,2.6c1.3,0.9,4.9,3.8,6.2,4.8
		C70.7,497.8,130.6,540.5,194.6,510.8z"/>
	<path class="st4" d="M51.2,502.5c0.7,0.6,1.1,1.3,1.7,2.1c2.7,3.4,4.5,4.1,5.2,6.9c1.6,6.8,6.9,11.8,5.8,18.6
		c-4.5-6-5.7-13.3-10.3-19.7C52,508.1,50.3,505.6,51.2,502.5z"/>
	<path class="st4" d="M151.4,501.9c0,0,14.4,0,23.7-3C175.1,498.9,167,504,151.4,501.9z"/>
	<path class="st4" d="M233.3,317.6c2.3,2.2,5.5,1.7,8.4,2.4c0.3,0.1,2,0.5,1.2,1.3c-3.7,3.6-8.7,4.4-12.9,7.4
		c-1.2,0.9-3.4,3.3-1.7,3.7c4.5,1,8.1-2.8,12.5-4.1c3.2-0.9,6.4-2.1,8.9-4.5c1.2-1.1,2.2-2.3,3.6-3.1c4.1-2.5,7.6-5,11.7-7.5
		c2.1-1.3,3.4-3.3,5.3-4.7c1.6-1.2,1.9-2.7,3.5-3.8c1.7-1.3,2.9-1.2,2.1-3.5c0.1,0.4-1.6-2.7-0.2-3.4c-2.4,1.1-4.6,2.3-6.9,3.5
		c-2.8,1.3-5.8,2.4-8.6,3.5c-7,2.8-14,5.4-20.9,8.6c-1.4,0.7-1.5,2.6-3,3.4"/>
	<path class="st4" d="M276.8,285.2c-7.6,1-14.7,2.9-22,5.2c-0.2,0-0.1,1-0.1,1.5c1.5,0,3,0.5,4.2,0.5c6.6-0.1,12.6-3.7,18.6-6.4
		C277.3,285.7,277,285.2,276.8,285.2z"/>
	<polygon class="st5" points="250.6,511.5 248.4,511.5 247.5,503.2 243.7,511.5 241.5,511.5 247.2,499.1 249.4,499.1 250.3,507.4 
		254.1,499.1 256.4,499.1 	"/>
	<path class="st5" d="M261,511.5h2.2l1.5-12.4H262l-9.8,12.4h2.4l2.1-2.7h4.5L261,511.5z M258.4,506.7l3.9-5l-0.7,5H258.4z"/>
	<polygon class="st5" points="268.3,511.5 265.9,511.5 270.7,501.2 267.2,501.2 268.2,499.1 277.3,499.1 276.4,501.2 273,501.2 	"/>
	<polygon class="st5" points="272.9,511.5 278.7,499.1 281,499.1 275.2,511.5 	"/>
	<path class="st5" d="M280.1,510.4c0.6,0.8,1.6,1.3,2.9,1.3c1.1,0,2.3-0.3,3.4-0.9c1.1-0.6,2.2-1.5,3.1-2.7s1.7-2.6,2-4
		c0.4-1.6,0.3-2.9-0.3-3.8c-0.7-0.9-1.7-1.4-3.1-1.4c-1.3,0-2.6,0.4-3.8,1.1c-1.2,0.8-2.3,1.9-3.2,3.3c-0.7,1.1-1.2,2.2-1.5,3.3
		C279.2,508.1,279.4,509.4,280.1,510.4z M283.4,503.6c0.7-0.9,1.3-1.6,2-2c0.7-0.4,1.4-0.6,2-0.6c0.8,0,1.3,0.3,1.6,0.8
		c0.4,0.6,0.4,1.4,0.2,2.4c-0.3,1-0.7,1.9-1.4,2.8c-0.7,0.9-1.4,1.6-2,2c-0.7,0.4-1.3,0.6-1.9,0.6c-0.7,0-1.3-0.3-1.6-0.8
		c-0.4-0.5-0.4-1.3-0.2-2.2C282.3,505.5,282.8,504.5,283.4,503.6z"/>
	<polygon class="st5" points="299.4,511.5 297.2,511.5 296.3,503.2 292.4,511.5 290.2,511.5 295.9,499.1 298.1,499.1 299,507.4 
		302.9,499.1 305.1,499.1 	"/>
	<path class="st5" d="M309.7,511.5h2.2l1.5-12.4h-2.7l-9.8,12.4h2.4l2.1-2.7h4.5L309.7,511.5z M307.1,506.7l3.9-5l-0.7,5H307.1z"/>
	<polygon class="st5" points="313.5,511.5 319.2,499.1 321.6,499.1 316.8,509.4 322.7,509.4 321.7,511.5 	"/>
	<polygon class="st5" points="336.9,505.9 332.4,505.9 329.9,511.5 327.5,511.5 333.2,499.1 335.6,499.1 333.4,503.9 337.8,503.9 
		340,499.1 342.4,499.1 336.7,511.5 334.3,511.5 	"/>
	<polygon class="st5" points="339.1,511.5 344.8,499.1 353.4,499.1 352.4,501.2 346.2,501.2 344.9,504 350.9,504 350,506.1 
		344,506.1 342.4,509.4 349.1,509.4 348.1,511.5 	"/>
	<path class="st5" d="M358.4,506.7l0.7-5l-3.9,5H358.4z M358.1,508.7h-4.5l-2.1,2.7H349l9.8-12.4h2.7l-1.5,12.4h-2.2L358.1,508.7z"
		/>
	<path class="st5" d="M365.6,511.5c0.9,0,1.5,0,1.9-0.1c0.6-0.1,1.3-0.3,1.9-0.6c0.6-0.3,1.3-0.8,2-1.4c0.7-0.7,1.3-1.4,1.8-2.3
		c0.5-0.9,0.9-1.8,1.2-2.8c0.3-1,0.3-1.8,0.2-2.5c-0.1-0.7-0.3-1.3-0.7-1.7c-0.4-0.4-0.9-0.7-1.5-0.8c-0.4-0.1-1.1-0.1-2.2-0.1h-3.1
		l-5.7,12.4H365.6z M368.7,501.2h1.4c0.7,0,1.2,0.1,1.5,0.2c0.4,0.2,0.6,0.5,0.7,0.9c0.1,0.5,0.1,1.1-0.1,1.9
		c-0.3,1-0.6,1.8-1.1,2.6c-0.5,0.7-1,1.3-1.5,1.7c-0.5,0.4-1,0.7-1.5,0.8c-0.4,0.1-1,0.2-1.9,0.2h-1.2L368.7,501.2z"/>
	<path class="st5" d="M382,508.5c0.6-0.5,1.1-1.1,1.7-2c0.5-0.8,0.9-1.6,1.1-2.4c0.3-1,0.2-1.8-0.1-2.3c-0.3-0.5-0.9-0.8-1.7-0.8
		c-0.6,0-1.3,0.2-1.9,0.6c-0.7,0.4-1.4,1.1-2,2c-0.7,0.9-1.1,1.9-1.4,2.8c-0.3,1-0.2,1.8,0.1,2.3c0.4,0.5,0.9,0.8,1.7,0.8
		c0.4,0,0.6,0,0.8-0.1c0.1,0,0.1-0.1,0.1-0.1c0-0.1-0.1-0.2-0.2-0.4c-0.2-0.3-0.5-0.5-0.8-0.6l1.2-1.4
		C381.2,507.3,381.6,507.8,382,508.5z M381.1,511.2c-0.4,0.2-0.8,0.3-1.2,0.3c-0.4,0.1-0.8,0.1-1.3,0.1c-1.4,0-2.3-0.4-2.9-1.3
		c-0.7-1-0.8-2.3-0.4-3.8c0.3-1,0.8-2.1,1.5-3.3c0.9-1.4,2-2.5,3.2-3.3c1.2-0.8,2.5-1.1,3.8-1.1c1.4,0,2.4,0.5,3.1,1.4
		c0.7,0.9,0.8,2.2,0.3,3.8c-0.3,1.2-0.9,2.4-1.7,3.5c-0.8,1.1-1.6,2-2.6,2.7c0.3,0.5,0.8,0.9,1.3,1.3l-1.5,1.6
		C382,512.7,381.4,512.1,381.1,511.2z"/>
	<path class="st5" d="M391.3,499.1h2.4l-3.1,6.7l-0.8,1.6c-0.1,0.2-0.1,0.3-0.2,0.4c-0.1,0.5-0.1,0.9,0.2,1.2
		c0.3,0.3,0.7,0.5,1.3,0.5c0.5,0,1-0.1,1.4-0.3c0.4-0.2,0.8-0.5,1.1-1c0.3-0.4,0.8-1.2,1.3-2.4l3.2-6.8h2.4l-3.2,6.7
		c-0.6,1.4-1.2,2.4-1.7,3.1c-0.7,0.9-1.5,1.6-2.3,2.1c-0.9,0.5-1.8,0.7-2.9,0.7c-1.3,0-2.2-0.3-2.7-1c-0.6-0.7-0.7-1.6-0.4-2.8
		c0.1-0.4,0.4-1.1,0.9-2.3L391.3,499.1z"/>
	<path class="st5" d="M405.3,511.5h2.2l1.5-12.4h-2.7l-9.8,12.4h2.4l2.1-2.7h4.5L405.3,511.5z M402.7,506.7l3.9-5l-0.7,5H402.7z"/>
	<path class="st5" d="M414.6,504.5h1.3c1.2,0,2-0.1,2.5-0.2c0.5-0.1,0.9-0.4,1.3-0.7c0.4-0.4,0.6-0.7,0.7-1.2c0.1-0.5,0-0.8-0.3-1
		c-0.2-0.1-0.6-0.2-1.3-0.2h-2.6L414.6,504.5z M411.4,511.5H409l5.7-12.4h5.1c1,0,1.6,0.1,2,0.3c0.4,0.2,0.7,0.6,0.9,1.1
		c0.2,0.5,0.1,1.1-0.1,1.9c-0.3,1.1-0.8,2-1.6,2.6c-0.8,0.7-1.8,1.1-3,1.2c0.2,0.3,0.4,0.8,0.6,1.3c0.3,1,0.5,2.3,0.6,3.9h-2.6
		c0-0.3-0.1-1.3-0.3-2.8c-0.1-0.8-0.2-1.4-0.4-1.7c-0.1-0.2-0.3-0.4-0.4-0.5c-0.2-0.1-0.5-0.1-0.9-0.1h-1L411.4,511.5z"/>
	<polygon class="st5" points="425.6,511.5 423.3,511.5 428,501.2 424.6,501.2 425.5,499.1 434.7,499.1 433.7,501.2 430.4,501.2 	"/>
	<polygon class="st5" points="430.5,511.5 436.2,499.1 444.8,499.1 443.8,501.2 437.7,501.2 436.4,504 442.3,504 441.4,506.1 
		435.4,506.1 433.9,509.4 440.5,509.4 439.5,511.5 	"/>
	<path class="st5" d="M446,506.3h1c0.5,0,0.8,0,0.9,0.1c0.2,0.1,0.3,0.2,0.4,0.5c0.2,0.3,0.3,0.9,0.4,1.7c0.2,1.5,0.3,2.5,0.3,2.8
		h2.6c-0.2-1.7-0.4-3-0.6-3.9c-0.2-0.6-0.4-1-0.6-1.3c1.2-0.2,2.2-0.6,3-1.2c0.8-0.7,1.3-1.5,1.6-2.6c0.2-0.7,0.2-1.4,0.1-1.9
		c-0.2-0.5-0.4-0.8-0.9-1.1c-0.4-0.2-1.1-0.3-2-0.3H447l-5.7,12.4h2.4L446,506.3z M448.4,501.2h2.6c0.7,0,1.1,0.1,1.3,0.2
		c0.3,0.2,0.4,0.6,0.3,1c-0.1,0.4-0.4,0.8-0.7,1.2c-0.4,0.4-0.8,0.6-1.3,0.7c-0.5,0.1-1.3,0.2-2.5,0.2h-1.3L448.4,501.2z"/>
	<path class="st5" d="M454.3,507.4l2.3-0.1c-0.1,0.7-0.2,1.1-0.1,1.4c0.1,0.3,0.3,0.5,0.5,0.6c0.3,0.1,0.7,0.2,1.3,0.2
		c0.7,0,1.3-0.1,1.8-0.4c0.4-0.3,0.7-0.6,0.8-1.1c0.1-0.3,0.1-0.6-0.1-0.8c-0.1-0.2-0.6-0.5-1.4-1c-1-0.5-1.6-0.9-1.9-1.2
		c-0.3-0.3-0.5-0.6-0.6-1.1c-0.1-0.4-0.1-0.9,0.1-1.4c0.3-1.1,0.9-2,1.8-2.6c0.9-0.7,2-1,3.3-1c1.3,0,2.2,0.3,2.8,1
		c0.6,0.7,0.8,1.6,0.5,2.8l-2.3,0.1c0.2-1.2-0.3-1.8-1.6-1.8c-0.6,0-1.1,0.1-1.5,0.4c-0.4,0.2-0.6,0.6-0.7,1c-0.1,0.4,0,0.7,0.2,0.9
		c0.2,0.2,0.7,0.6,1.4,1c1,0.5,1.6,0.9,1.9,1.2c0.3,0.3,0.5,0.6,0.6,1c0.1,0.4,0.1,0.9-0.1,1.4c-0.3,1.2-1,2.1-2,2.9
		c-1,0.7-2.2,1.1-3.6,1.1c-1,0-1.9-0.2-2.5-0.6c-0.6-0.4-1-0.9-1.1-1.6C454.1,508.9,454.1,508.2,454.3,507.4z"/>
	<path class="st5" d="M236.9,533.7l4.6-0.2c-0.3,1.3-0.4,2.3-0.2,2.8c0.1,0.5,0.5,0.9,1.1,1.2c0.6,0.3,1.4,0.4,2.6,0.4
		c1.5,0,2.6-0.3,3.5-0.8c0.9-0.6,1.5-1.3,1.7-2.2c0.2-0.6,0.1-1.2-0.2-1.7c-0.3-0.4-1.2-1.1-2.8-1.9c-2-1-3.3-1.9-3.8-2.4
		c-0.6-0.6-1-1.3-1.1-2.1c-0.2-0.8-0.1-1.8,0.2-2.9c0.6-2.2,1.8-4,3.6-5.3c1.8-1.3,4-2,6.6-2c2.6,0,4.5,0.7,5.7,2
		c1.2,1.3,1.6,3.1,1.1,5.5l-4.6,0.2c0.4-2.4-0.7-3.7-3.3-3.7c-1.3,0-2.3,0.2-3,0.7c-0.7,0.5-1.2,1.1-1.4,1.9
		c-0.2,0.7-0.1,1.4,0.4,1.8c0.4,0.5,1.4,1.1,2.9,1.9c2,1,3.2,1.8,3.8,2.4c0.6,0.6,1,1.3,1.1,2.1c0.2,0.8,0.1,1.8-0.2,2.8
		c-0.6,2.3-2,4.2-4,5.7c-2.1,1.5-4.5,2.2-7.3,2.2c-2.1,0-3.8-0.4-5-1.2c-1.3-0.8-2-1.8-2.2-3.1C236.3,536.5,236.4,535.2,236.9,533.7
		z"/>
	<path class="st5" d="M264.7,532.3h3c2.3,0,3.8-0.1,4.6-0.2c1.5-0.2,2.8-0.7,4-1.3c1.2-0.7,2.3-1.7,3.4-3.1c1.1-1.4,1.8-2.9,2.2-4.5
		c0.4-1.4,0.4-2.5,0.1-3.5c-0.3-0.9-0.9-1.6-1.7-2.1c-0.8-0.4-2.1-0.7-3.9-0.7h-9.3l-11.5,24.8h4.7L264.7,532.3z M269.9,521.1h3.3
		c1.7,0,2.8,0.1,3.2,0.3c0.7,0.4,0.9,1.1,0.6,2.2c-0.3,1-0.8,1.9-1.5,2.6c-0.8,0.7-1.6,1.3-2.6,1.5c-0.9,0.3-2.6,0.4-5,0.4h-1.4
		L269.9,521.1z"/>
	<path class="st5" d="M286.6,531.5h1.9c0.9,0,1.5,0.1,1.9,0.3c0.3,0.2,0.6,0.5,0.9,0.9c0.3,0.7,0.6,1.8,0.8,3.4
		c0.4,3.1,0.6,5,0.6,5.7h5.1c-0.3-3.3-0.8-6-1.3-7.9c-0.3-1.1-0.7-2-1.2-2.6c2.4-0.3,4.4-1.1,5.9-2.5c1.6-1.3,2.7-3.1,3.2-5.3
		c0.4-1.5,0.4-2.7,0.1-3.7c-0.3-1-0.9-1.7-1.7-2.1c-0.8-0.4-2.2-0.7-4.1-0.7h-10.3l-11.4,24.8h4.7L286.6,531.5z M291.4,521.1h5.2
		c1.4,0,2.3,0.1,2.6,0.4c0.6,0.4,0.8,1.1,0.5,2.1c-0.2,0.8-0.7,1.6-1.5,2.3c-0.8,0.7-1.6,1.2-2.5,1.5c-0.9,0.3-2.6,0.4-5,0.4h-2.5
		L291.4,521.1z"/>
	<polygon class="st5" points="299.8,541.7 311.4,517 316.2,517 304.6,541.7 	"/>
	<polygon class="st5" points="327.7,541.7 323.3,541.7 321.5,525.1 313.8,541.7 309.4,541.7 320.8,517 325.3,517 327.1,533.6 
		334.8,517 339.2,517 	"/>
	<path class="st5" d="M349,528.5h10.3l-4.9,10.6c-1.5,0.9-3.2,1.6-5.2,2.2c-1.9,0.5-3.8,0.8-5.5,0.8c-3.1,0-5.1-0.8-6.3-2.4
		c-1.3-1.9-1.6-4.6-0.7-7.9c0.8-2.9,2.1-5.6,4.1-8.1c1.9-2.5,4-4.3,6.2-5.4c2.2-1.1,4.4-1.7,6.7-1.7c2.5,0,4.5,0.6,5.8,1.9
		c1.3,1.3,1.9,3.3,1.7,5.9l-4.6,0.5c0-2.8-1.4-4.2-4.1-4.2c-1.5,0-2.9,0.4-4.4,1.2c-1.4,0.8-2.8,2.1-4.1,3.8
		c-1.3,1.8-2.2,3.8-2.8,6.1c-0.6,2.1-0.5,3.6,0.1,4.6c0.6,1,1.8,1.5,3.5,1.5c1,0,1.9-0.1,2.9-0.4c1.3-0.3,2.5-0.7,3.4-1.2l1.7-3.7
		h-5.9L349,528.5z"/>
	<polygon class="st5" points="357.8,541.7 369.3,517 385.4,517 383.5,521.1 372.1,521.1 369.3,527.1 380.5,527.1 378.6,531.2 
		367.4,531.2 362.6,541.7 	"/>
	<polygon class="st5" points="376.9,541.7 388.5,517 393.3,517 381.7,541.7 	"/>
	<polygon class="st5" points="386.5,541.7 397.9,517 415,517 413.1,521.1 400.7,521.1 398.1,526.8 410.1,526.8 408.1,530.9 
		396.2,530.9 393.1,537.6 406.4,537.6 404.5,541.7 	"/>
	<polygon class="st5" points="408,541.7 419.5,517 424.2,517 414.7,537.6 426.4,537.6 424.5,541.7 	"/>
	<path class="st5" d="M435.9,541.7c1.7,0,3-0.1,3.9-0.2c1.3-0.2,2.5-0.6,3.8-1.2c1.3-0.6,2.6-1.5,4-2.8c1.4-1.3,2.6-2.8,3.6-4.6
		c1-1.7,1.8-3.6,2.4-5.7c0.5-1.9,0.7-3.6,0.5-5c-0.2-1.4-0.7-2.5-1.4-3.3c-0.7-0.8-1.7-1.4-3-1.7c-0.7-0.2-2.2-0.2-4.3-0.2h-6.2
		l-11.4,24.8H435.9z M442,521.1h2.7c1.4,0,2.4,0.1,2.9,0.3c0.7,0.3,1.2,1,1.4,1.9c0.2,0.9,0.1,2.2-0.3,3.8c-0.5,2-1.3,3.7-2.3,5.2
		c-1,1.5-2,2.7-3,3.5c-1,0.8-2,1.4-3,1.7c-0.8,0.2-2,0.3-3.8,0.3h-2.4L442,521.1z"/>
	<path class="st5" d="M453.1,537.1h4.5l-1.8,3.9c-1,2.3-2.2,3.9-3.4,4.8c-1.2,0.9-2.6,1.4-4,1.4l1-2.2c0.8-0.2,1.5-0.5,2-1
		c0.5-0.5,1.1-1.2,1.5-2.2h-2.1L453.1,537.1z"/>
	<polygon class="st5" points="482.3,541.7 477.7,541.7 482.5,521.1 473.3,541.7 469,541.7 480.4,517 487.2,517 483.3,534.3 
		495.7,517 502.6,517 491.2,541.7 486.9,541.7 496.8,521.2 	"/>
	<path class="st5" d="M500.7,539.6c1.2,1.7,3.1,2.5,5.9,2.5c2.3,0,4.6-0.6,6.8-1.7c2.2-1.2,4.3-3,6.2-5.4c1.9-2.4,3.3-5.1,4.1-8
		c0.9-3.2,0.6-5.7-0.7-7.6c-1.3-1.9-3.3-2.8-6.1-2.8c-2.7,0-5.2,0.8-7.7,2.3c-2.4,1.5-4.6,3.7-6.4,6.6c-1.4,2.3-2.4,4.5-3,6.6
		C499,535.1,499.3,537.6,500.7,539.6z M507.4,526c1.3-1.8,2.7-3.1,4.1-3.9c1.4-0.8,2.7-1.2,3.9-1.2c1.5,0,2.6,0.5,3.2,1.5
		c0.7,1.1,0.9,2.7,0.3,4.7c-0.5,1.9-1.4,3.8-2.8,5.7c-1.4,1.8-2.7,3.2-4.1,4c-1.4,0.8-2.6,1.2-3.8,1.2c-1.5,0-2.6-0.5-3.3-1.6
		c-0.7-1.1-0.9-2.5-0.4-4.4C505.2,529.8,506.1,527.8,507.4,526z"/>
</g>
</svg>
